<svg version="1.1" id="Layer_1" xmlns="http://www.w3.org/2000/svg" xmlns:xlink="http://www.w3.org/1999/xlink" x="0px" y="0px"
	 width="100%" viewBox="0 0 512 512" enable-background="new 0 0 512 512" xml:space="preserve">
<path fill="#000000" opacity="1.000000" stroke="none" 
	d="
M307.000000,513.000000 
	C204.691513,513.000000 102.883018,513.000000 1.037265,513.000000 
	C1.037265,342.399811 1.037265,171.799637 1.037265,1.099719 
	C171.558502,1.099719 342.117065,1.099719 512.837830,1.099719 
	C512.837830,171.666534 512.837830,342.333252 512.837830,513.000000 
	C444.466278,513.000000 375.983124,513.000000 307.000000,513.000000 
M163.503143,324.884338 
	C163.672531,324.862152 163.841934,324.839935 164.658752,324.907684 
	C165.092819,324.946259 165.526901,324.984833 166.616806,325.559448 
	C177.995956,325.226990 189.456512,325.611420 200.728088,324.331635 
	C209.491226,323.336609 218.170135,320.578674 225.158691,314.525269 
	C226.248779,313.581055 226.706970,311.907349 227.457352,310.570953 
	C225.976700,309.781830 224.496048,308.992706 222.255386,308.098541 
	C221.233612,308.055084 220.211823,308.011627 218.758347,307.394470 
	C216.819351,307.259460 214.880341,307.124481 212.547623,307.003387 
	C212.547623,307.003387 212.153702,307.007355 211.599564,306.442078 
	C204.067932,304.269745 196.536301,302.097382 189.010147,299.986938 
	C189.010147,299.986938 189.067474,299.962982 188.674240,299.396271 
	C186.768173,298.657898 184.862106,297.919525 182.534927,297.065887 
	C182.534927,297.065887 182.105499,296.987122 181.768112,296.422943 
	C180.844467,295.924377 179.920822,295.425781 179.016586,294.989410 
	C179.016586,294.989410 179.074249,294.959015 178.774582,294.330963 
	C174.525955,291.529663 170.277328,288.728363 166.012985,285.985260 
	C166.012985,285.985260 166.072617,285.976410 165.775986,285.398834 
	C164.849319,284.898285 163.922653,284.397736 162.737732,283.417725 
	C162.193481,282.946564 161.649216,282.475372 160.827957,281.556244 
	C160.545837,281.352722 160.263702,281.149200 159.983444,281.015808 
	C159.983444,281.015808 160.053558,281.012970 159.808121,280.556854 
	C159.533630,280.353333 159.259155,280.149780 158.983856,280.016357 
	C158.983856,280.016357 159.053955,280.016083 158.808090,279.550964 
	C158.536224,279.333984 158.264359,279.117004 157.729401,278.419678 
	C157.181610,277.946320 156.633804,277.472961 155.926987,276.313446 
	C152.628067,271.856720 149.329147,267.399994 146.003815,262.996979 
	C146.003815,262.996979 146.063614,262.999512 145.977661,262.347137 
	C145.321732,261.543488 144.665802,260.739807 144.001770,260.001190 
	C144.001770,260.001190 144.067245,259.998352 143.951935,259.272919 
	C142.309860,255.824554 140.667801,252.376205 139.014130,248.995316 
	C139.014130,248.995316 139.082245,249.002289 139.002380,248.218048 
	C137.682541,244.128326 136.362701,240.038589 134.938126,235.458466 
	C134.894699,235.297058 134.851273,235.135651 134.920914,234.105042 
	C134.967850,222.702393 134.022202,211.188141 135.288742,199.922607 
	C137.311142,181.933823 144.014053,165.396271 157.189911,152.550720 
	C166.510345,143.463928 176.984177,135.562241 186.906754,127.088928 
	C188.486282,125.740097 189.874039,124.166656 191.350464,122.697060 
	C191.002319,122.141945 190.654190,121.586830 190.306046,121.031715 
	C179.709412,121.610062 169.679565,124.635948 160.003448,128.985413 
	C160.003448,128.985413 159.963699,128.938141 159.201691,128.991180 
	C157.115555,129.668411 155.029434,130.345642 152.523743,131.089859 
	C152.523743,131.089859 152.109573,131.184509 151.306961,131.067871 
	C150.235825,131.001099 149.164673,130.934311 148.145950,130.110413 
	C150.449692,120.983681 153.748383,111.972061 154.820892,102.702873 
	C156.378464,89.241447 156.419006,75.597313 156.898071,62.023731 
	C157.007385,58.926418 156.503128,55.748703 155.857971,52.697487 
	C154.926163,48.290535 150.922119,46.225460 147.359894,48.690952 
	C144.778503,50.477577 143.051651,53.498844 140.990372,56.002388 
	C140.990372,56.002388 140.964539,55.951969 140.358994,56.261307 
	C136.649429,60.679253 132.855988,65.029915 129.247009,69.528557 
	C120.568855,80.345970 111.848526,91.134148 103.412300,102.138870 
	C99.912674,106.703995 95.361954,110.559280 95.911003,117.645218 
	C96.845963,129.711456 96.856171,141.861710 96.845161,153.976303 
	C96.843391,155.924759 94.717690,157.871277 93.573807,159.818695 
	C92.070457,158.560165 90.147766,157.568878 89.143120,155.992508 
	C86.240440,151.437973 83.707420,146.647873 81.005493,142.000275 
	C81.005493,142.000275 81.057755,141.981949 80.924492,141.282578 
	C77.956924,136.841248 74.989357,132.399918 72.001389,128.006500 
	C72.001389,128.006500 72.048996,127.985374 71.983559,127.316933 
	C70.994408,126.197342 70.005257,125.077751 68.996223,124.006409 
	C68.996223,124.006409 69.045090,123.988098 68.957108,123.285431 
	C64.982712,118.177650 61.008316,113.069870 56.999737,107.999664 
	C56.999737,107.999664 57.038563,107.967491 56.751289,107.344879 
	C53.170753,103.217712 49.590218,99.090553 45.991589,95.008621 
	C45.991589,95.008621 46.036633,94.990059 45.735493,94.362213 
	C44.085739,90.205482 40.661606,87.503471 36.622364,88.320496 
	C34.397709,88.770477 31.748978,92.434792 31.252001,95.025978 
	C30.168278,100.676376 30.357418,106.568504 29.991972,112.359688 
	C29.564104,119.140076 29.422689,125.958366 28.584904,132.689011 
	C26.740013,147.510544 28.603947,161.411392 37.926548,173.573776 
	C43.159946,180.401337 48.663033,187.025131 54.147385,193.655731 
	C56.018684,195.918137 56.173061,197.627441 54.310883,200.203857 
	C46.282585,211.311493 37.909424,222.245300 30.850113,233.958557 
	C22.191217,248.325928 16.064730,263.851135 15.078650,281.887634 
	C15.110889,285.932129 15.143129,289.976654 15.145215,294.595093 
	C15.406507,295.078308 15.667799,295.561493 15.994431,296.779083 
	C16.061058,297.512817 16.127687,298.246521 16.073494,299.753632 
	C16.709122,301.870056 17.344748,303.986511 18.042999,306.710938 
	C18.096367,307.114655 18.149736,307.518372 18.073402,308.705597 
	C20.979580,315.680756 23.118502,323.112396 26.943382,329.540924 
	C36.424603,345.476166 49.351917,357.274048 68.631042,360.153046 
	C69.550873,360.290375 70.621620,360.627136 71.261086,361.244812 
	C77.743446,367.506134 76.469055,374.773071 68.683014,379.301300 
	C66.286697,380.694946 64.835381,383.713470 62.998260,386.005310 
	C62.998260,386.005310 62.980690,385.959778 62.671993,386.180450 
	C62.778954,386.475220 62.885914,386.770020 63.089363,387.558319 
	C63.133595,387.719971 63.177830,387.881653 63.117168,388.841217 
	C63.792835,391.146790 63.925827,393.841675 65.247345,395.683960 
	C69.000732,400.916473 72.798424,406.249146 77.365639,410.742462 
	C94.427551,427.528198 111.730362,444.071808 129.094452,460.546448 
	C137.547958,468.566895 143.635422,469.261688 151.904312,462.414825 
	C160.319977,455.446472 168.121735,447.722107 176.027420,440.156433 
	C184.358719,432.183472 192.225723,423.704468 200.826172,416.042084 
	C205.352463,412.009460 209.975357,412.818451 213.811264,417.536255 
	C216.039764,420.277100 217.931885,423.665894 218.785583,427.062164 
	C220.058960,432.127991 220.478424,437.441895 220.904633,442.679260 
	C221.504959,450.056183 225.138153,452.115662 231.340927,447.876343 
	C235.700638,444.896729 239.983948,441.604156 243.617386,437.798340 
	C258.294159,422.425232 273.290771,407.296661 287.049805,391.125305 
	C300.698486,375.083588 311.360992,356.907532 315.062836,335.791840 
	C318.558044,315.854980 319.897614,295.747955 318.168243,275.380035 
	C316.330872,253.739868 313.092041,232.617111 301.798737,213.694473 
	C296.848969,205.400787 290.650238,197.852478 284.999542,190.003052 
	C284.999542,190.003052 285.038147,189.984787 284.988922,189.276962 
	C282.962036,186.751282 281.199799,183.942078 278.856842,181.755005 
	C272.708405,176.015671 266.306854,170.547501 259.995483,165.002914 
	C259.995483,165.002914 260.025909,164.990799 259.700439,164.398193 
	C256.804535,162.252960 253.908646,160.107727 250.997116,158.001648 
	C250.997116,158.001648 251.034286,157.982468 250.705551,157.384018 
	C242.263840,152.307251 233.869492,147.148636 225.343567,142.217468 
	C223.464676,141.130768 221.119247,140.850662 218.555710,140.070755 
	C218.555710,140.070755 218.112518,139.984116 217.633057,139.432938 
	C212.969025,137.960007 208.373871,135.607422 203.623642,135.235565 
	C197.609619,134.764725 190.931793,133.501190 185.998657,139.001190 
	C185.998657,139.001190 185.983368,138.960648 185.356369,139.072021 
	C184.559616,139.704803 183.762848,140.337585 182.999695,141.001114 
	C182.999695,141.001114 182.982864,140.959457 182.350800,141.078339 
	C181.534134,141.704117 180.717468,142.329910 179.509842,143.185684 
	C179.264496,143.378128 179.090973,143.621719 178.331299,144.024521 
	C177.209091,145.010757 176.086884,145.996994 175.003555,147.001160 
	C175.003555,147.001160 174.986557,146.961304 174.272888,147.030380 
	C171.173660,149.673096 168.074432,152.315811 164.989670,154.990234 
	C164.989670,154.990234 164.982819,154.975281 164.533005,155.185104 
	C164.252518,155.386612 164.065598,155.653625 163.994278,155.988083 
	C163.994278,155.988083 163.960068,155.972549 163.368011,156.278076 
	C161.230667,158.845108 159.093323,161.412140 156.998779,164.001953 
	C156.998779,164.001953 156.970383,163.964401 156.352478,164.307495 
	C153.972931,167.224136 152.133240,170.231979 153.746094,174.250610 
	C155.465500,178.534790 159.369995,178.415176 162.903763,178.865723 
	C165.201187,179.158646 167.569458,178.838867 169.895676,178.972809 
	C181.431778,179.637070 193.085556,179.539734 204.475357,181.219589 
	C237.088501,186.029556 265.109009,200.022827 286.771667,225.363022 
	C300.162354,241.026917 307.238312,259.236877 307.011566,280.021118 
	C306.856628,294.227356 303.665192,307.847839 299.046356,321.223755 
	C290.905060,344.800415 276.736694,363.902618 256.424866,379.071686 
	C256.147552,379.266998 255.954361,379.525208 255.173264,380.022766 
	C247.984009,383.729523 241.042969,388.105286 233.514740,390.898499 
	C228.808029,392.644836 222.871277,393.358032 218.098572,392.138763 
	C209.815369,390.022705 202.006546,386.049744 193.998795,382.855469 
	C192.921555,382.691132 191.515091,383.845947 190.290878,385.169342 
	C178.025238,398.429138 165.948166,411.868073 153.477249,424.931244 
	C147.421646,431.274414 140.756683,437.056976 134.145798,442.839783 
	C130.962189,445.624573 127.508827,446.046814 123.985458,442.632874 
	C121.673676,440.392883 118.707947,438.827820 115.703690,436.374115 
	C106.956978,429.137177 98.511322,421.491211 89.383072,414.772644 
	C79.257744,407.320221 79.952827,397.409271 88.358185,392.083374 
	C90.026596,391.026215 91.991119,389.931000 92.918076,388.331268 
	C94.206810,386.107117 96.072044,382.622223 95.206444,381.014252 
	C90.934631,373.078857 85.843338,365.584595 81.010384,357.987183 
	C81.010384,357.987183 81.070465,357.996704 80.950920,357.336090 
	C80.315079,356.209686 79.679230,355.083252 79.008209,354.003357 
	C79.008209,354.003357 79.058342,353.972015 78.953842,353.249146 
	C76.219879,347.586456 73.480492,341.926422 70.753098,336.260559 
	C65.255844,324.840668 61.134750,312.899902 60.166115,300.268280 
	C58.610481,279.981812 60.899773,260.103027 69.462074,241.367920 
	C72.362526,235.021469 75.893982,228.963409 79.137085,222.773560 
	C79.837891,222.876556 80.538689,222.979553 81.239494,223.082535 
	C82.137627,225.585724 83.233368,228.038681 83.885475,230.604401 
	C84.764519,234.062958 85.301964,237.608337 86.033699,241.822021 
	C86.080032,242.527344 86.126358,243.232666 86.047958,244.756958 
	C90.174461,271.332367 105.402016,291.144806 125.482216,308.145325 
	C120.204010,311.541504 115.764259,309.850861 111.971420,307.161865 
	C106.735336,303.449677 101.980568,299.058563 97.000694,295.005188 
	C97.000694,295.005188 97.047066,294.984528 96.952332,294.282593 
	C95.871696,292.652649 94.558182,291.130157 93.748199,289.375305 
	C88.456230,277.909943 83.326950,266.369293 77.993454,254.923615 
	C77.244240,253.315811 75.669716,252.092575 74.477196,250.691330 
	C73.295776,252.106903 72.114365,253.522476 70.980339,254.981796 
	C70.980339,254.981796 70.978371,254.917358 70.449570,255.245895 
	C70.363693,255.846069 70.277817,256.446228 70.109863,257.619202 
	C70.083366,258.004059 70.056870,258.388885 69.421532,259.205536 
	C69.332832,260.165222 69.244125,261.124878 69.066780,262.696808 
	C69.024185,263.106476 68.981590,263.516113 68.416130,264.381073 
	C68.344650,265.291718 68.273178,266.202332 68.105736,267.668091 
	C68.081306,268.042847 68.056877,268.417572 67.438805,269.269836 
	C67.353844,270.496613 67.268875,271.723389 67.126793,273.646301 
	C67.159904,274.110596 67.193024,274.574921 67.107956,275.677856 
	C67.058670,276.108063 67.009384,276.538239 66.430550,277.591522 
	C66.675125,282.054016 66.919701,286.516479 67.272552,291.544250 
	C67.569031,292.037079 67.865501,292.529877 68.076393,293.731781 
	C68.370476,294.831940 68.664551,295.932129 68.974243,297.730438 
	C69.638626,298.838989 70.303009,299.947540 71.005844,301.006042 
	C71.005844,301.006042 70.947853,300.981079 71.043747,301.681244 
	C71.510361,302.141327 71.976974,302.601410 72.415047,303.435791 
	C72.415047,303.435791 72.713455,303.663330 72.713455,303.663330 
	C72.713455,303.663330 73.079971,303.583466 73.140030,304.193542 
	C73.698715,304.812653 74.257393,305.431763 75.215813,306.543335 
	C75.807663,306.752289 76.399506,306.961243 77.216217,307.546082 
	C77.409882,307.775696 77.649147,307.938141 78.370628,308.576599 
	C81.885147,309.719940 85.399666,310.863281 89.422615,312.529846 
	C90.605003,312.628052 91.787384,312.726257 93.519264,312.872711 
	C93.702217,312.854370 93.885170,312.835999 94.733498,313.197815 
	C96.479980,313.409088 98.226471,313.620331 100.464005,313.974701 
	C100.629272,314.016571 100.794540,314.058441 101.322021,314.579102 
	C103.745804,315.644440 103.346764,316.786224 101.932999,318.713928 
	C99.600792,321.894043 97.123016,325.219391 95.893410,328.881958 
	C94.767906,332.234406 92.659813,336.671112 98.164688,339.512451 
	C98.352524,339.762970 98.594017,339.940521 99.049797,340.794586 
	C100.375183,345.467651 101.700577,350.140747 102.929939,355.528778 
	C103.266685,356.112366 103.603432,356.695953 104.003761,357.605011 
	C104.003761,357.605011 104.111336,357.918732 104.205666,358.460938 
	C104.452568,358.725708 104.699471,358.990509 104.995628,359.872192 
	C105.596565,360.922852 106.197495,361.973541 106.941246,363.685272 
	C107.697952,364.984558 108.454651,366.283875 109.696358,368.118652 
	C112.169571,370.616425 114.643715,370.819305 117.581696,367.938049 
	C117.869255,367.744812 118.068268,367.483978 118.592239,366.910858 
	C118.849953,366.707367 119.043877,366.454895 119.604424,365.924347 
	C119.875732,365.717102 120.045700,365.446228 120.596596,364.641693 
	C121.321869,362.778412 122.047142,360.915161 122.845139,358.381073 
	C122.098686,352.361359 121.352242,346.341614 120.766273,339.622986 
	C120.450249,338.739716 120.134224,337.856445 120.220390,336.241028 
	C120.428406,332.479004 120.636421,328.716949 121.183899,324.347504 
	C121.439362,323.482910 121.694824,322.618347 122.010147,321.463318 
	C122.010147,321.463318 122.017731,321.166870 122.525360,320.832886 
	C123.037109,320.222565 123.548859,319.612274 123.995850,318.996490 
	C123.995850,318.996490 124.002251,319.061157 124.572151,318.824341 
	C125.129944,318.226227 125.687737,317.628143 126.852463,317.005768 
	C127.447853,316.898102 128.043243,316.790405 129.161560,316.369568 
	C129.754990,316.243805 130.348404,316.118042 131.309494,316.472748 
	C131.872040,316.668152 132.434570,316.863556 133.017075,316.994659 
	C133.017075,316.994659 132.951080,316.981323 132.993484,317.648132 
	C133.338974,318.187134 133.684464,318.726105 134.194061,319.583710 
	C134.341400,319.779755 134.528000,319.925507 134.887360,320.639343 
	C135.246246,321.109467 135.605148,321.579620 135.942993,322.024292 
	C135.942993,322.024292 135.945114,322.062469 135.992493,322.761597 
	C136.991821,324.561340 137.991150,326.361115 139.059158,328.698425 
	C139.339447,329.133209 139.619736,329.567963 139.994034,330.677673 
	C140.320389,331.475586 140.646744,332.273499 140.947098,333.133453 
	C140.947098,333.133453 141.011490,333.152924 141.087753,333.559052 
	C141.087753,333.559052 141.202988,333.955902 141.161057,334.571808 
	C141.449646,335.082001 141.738235,335.592194 142.097031,336.504547 
	C142.097031,336.504547 142.211655,336.896393 142.053040,337.719696 
	C142.580307,340.227936 142.800125,342.863190 143.761841,345.192017 
	C144.258499,346.394623 146.072906,347.053070 147.291916,347.957397 
	C148.219330,346.642242 149.146759,345.327118 150.580994,343.415894 
	C151.330963,339.615326 152.080948,335.814758 152.935638,331.275818 
	C152.988632,330.532043 153.041626,329.788300 153.683029,328.649139 
	C154.159241,327.109558 154.635452,325.570007 155.740204,323.725739 
	C157.796463,323.829773 159.852737,323.933777 162.164246,324.436127 
	C162.377167,324.700806 162.653458,324.833344 163.503143,324.884338 
M401.917633,316.045197 
	C401.880676,304.061157 401.843719,292.077118 401.897888,279.157196 
	C402.258698,264.034607 402.722870,248.913574 402.955933,233.789001 
	C403.301331,211.376099 402.922729,189.034119 398.137299,166.948380 
	C392.674072,141.734482 377.383606,125.374367 354.095032,115.318352 
	C343.145782,110.590477 331.637604,108.843010 320.118713,107.087280 
	C311.827728,105.823555 303.336060,105.141556 294.962372,105.349106 
	C285.396423,105.586197 275.796448,106.676888 266.329834,108.155754 
	C253.289368,110.192924 240.339081,112.840729 227.412521,115.526924 
	C225.974091,115.825829 224.272491,117.943527 223.965195,119.473305 
	C223.772903,120.430603 225.859848,121.991661 227.125092,123.038971 
	C227.839371,123.630203 228.974747,123.694130 229.896790,124.055855 
	C238.050354,127.254646 246.496140,129.876160 254.285919,133.799347 
	C270.064606,141.745972 284.072906,152.138809 296.014435,165.390610 
	C309.815460,180.705902 320.197571,198.009521 326.017700,217.627701 
	C330.040161,231.186386 332.360535,245.284851 334.898041,259.240936 
	C338.555206,279.355194 340.950012,299.729828 345.374481,319.662415 
	C348.143372,332.136780 352.331970,344.688507 358.207367,355.998291 
	C370.068604,378.830597 389.948303,394.053558 412.164856,405.922760 
	C437.481995,419.448425 464.878296,425.310852 493.564911,424.890839 
	C495.331573,424.865021 497.076660,423.363464 498.831787,422.548492 
	C497.287231,420.997772 496.005249,418.596893 494.157959,418.026398 
	C473.252411,411.569885 452.928467,403.878937 435.057007,390.898651 
	C422.522736,381.794861 411.246124,371.110962 407.419556,355.664703 
	C404.301208,343.077209 403.579254,329.896088 401.917633,316.045197 
z"/>
<path fill="#026B33" opacity="1.000000" stroke="none" 
	d="
M161.908997,324.037811 
	C159.852737,323.933777 157.796463,323.829773 155.165833,324.046295 
	C154.092514,325.926086 153.593567,327.485291 153.094635,329.044525 
	C153.041626,329.788300 152.988632,330.532043 152.529984,331.644440 
	C151.417847,332.014740 150.711380,332.016418 149.895477,331.753906 
	C144.396057,327.977570 144.329239,322.210358 143.295074,316.742767 
	C142.949142,314.913788 141.592346,312.083435 140.294083,311.837036 
	C135.132767,310.857452 132.957626,307.377594 130.864655,303.205261 
	C129.245514,299.977448 126.748428,297.657990 122.698532,300.848846 
	C120.577065,299.266693 118.578140,298.019958 116.955139,296.397247 
	C103.858719,283.303192 93.403984,268.613312 89.094742,250.182587 
	C88.582802,247.993027 87.168640,246.014389 86.172684,243.937988 
	C86.126358,243.232666 86.080032,242.527344 86.125427,241.103470 
	C86.033020,235.926102 86.251060,231.404205 85.564064,227.024261 
	C84.683487,221.410110 79.774353,220.047867 75.670052,224.067154 
	C74.399071,225.311813 73.412949,226.931854 72.588470,228.530640 
	C70.766762,232.063141 69.053047,235.656860 67.438660,239.289337 
	C65.486008,243.682922 62.760571,247.988022 61.987206,252.602509 
	C59.750378,265.949158 56.409271,279.056885 57.704479,293.019714 
	C59.111858,308.191742 60.770405,322.958435 68.478394,336.450012 
	C70.114197,339.313171 70.897301,342.673370 72.599480,345.486115 
	C74.429543,348.510132 76.879089,351.159302 79.058334,353.972015 
	C79.058342,353.972015 79.008209,354.003357 79.070183,354.313843 
	C79.778259,355.748474 80.424362,356.872589 81.070465,357.996704 
	C81.070465,357.996704 81.010384,357.987183 81.057083,358.353210 
	C83.738464,364.478851 86.373154,370.238464 88.739891,376.128479 
	C86.774643,379.925873 84.952789,383.545807 83.527054,387.315552 
	C83.334221,387.825439 85.130096,389.087463 85.803787,390.267242 
	C83.579918,393.274750 81.103996,395.795746 79.638748,398.808289 
	C77.311897,403.592316 76.022018,404.073730 72.189240,400.206360 
	C71.292519,399.301483 70.718582,398.076752 70.308670,397.108704 
	C75.563431,398.578796 78.607964,397.479095 78.395180,393.811523 
	C78.106659,388.838501 76.833023,383.922638 76.113754,378.627502 
	C80.357452,366.916016 76.606956,360.112457 65.075249,356.758209 
	C60.025482,355.289307 54.760391,353.416901 50.561676,350.385956 
	C39.148617,342.147186 29.314648,332.417908 24.457743,318.560760 
	C23.122684,314.751740 20.328005,311.454285 18.203102,307.922089 
	C18.149736,307.518372 18.096367,307.114655 18.113289,306.084412 
	C17.520491,303.298645 16.857403,301.139465 16.194317,298.980255 
	C16.127687,298.246521 16.061058,297.512817 15.978506,296.222168 
	C15.700179,295.117188 15.437776,294.569183 15.175371,294.021149 
	C15.143129,289.976654 15.110889,285.932129 15.374550,281.189545 
	C16.442654,278.518158 17.256903,276.560150 17.980200,274.569092 
	C22.439993,262.292542 25.611576,249.336945 31.666550,237.907761 
	C38.292828,225.400192 47.449711,214.209167 55.770782,202.636398 
	C58.752968,198.488846 59.003563,194.699661 56.028347,190.784103 
	C53.718788,187.744598 51.171856,184.865891 48.547783,182.088287 
	C36.319214,169.144302 28.212963,154.632339 29.956732,135.998825 
	C30.963522,125.240517 31.292095,114.418030 32.332741,103.663795 
	C33.423653,92.390129 34.941292,91.548508 45.549309,94.882011 
	C45.707455,94.931702 45.874004,94.954636 46.036633,94.990059 
	C46.036633,94.990059 45.991589,95.008621 46.080017,95.336487 
	C48.670116,100.756454 50.551430,106.396652 57.038563,107.967491 
	C57.038563,107.967491 56.999737,107.999664 57.070190,108.353821 
	C59.170856,115.311157 63.361607,120.231110 69.045090,123.988098 
	C69.045090,123.988098 68.996223,124.006409 69.085701,124.307182 
	C70.133118,125.733765 71.091057,126.859566 72.048996,127.985374 
	C72.048996,127.985374 72.001389,128.006500 72.073593,128.347229 
	C75.116447,133.119278 78.087097,137.550613 81.057755,141.981949 
	C81.057755,141.981949 81.005493,142.000275 81.056824,142.359131 
	C83.517654,148.169128 85.638252,153.781006 88.524040,158.967102 
	C89.322739,160.402435 92.658173,161.522842 94.353226,161.056335 
	C96.070801,160.583649 98.240585,158.055740 98.390228,156.274887 
	C98.846451,150.845764 98.500755,145.340454 98.329567,139.869095 
	C97.887077,125.726929 95.853607,111.960220 108.233124,100.142876 
	C118.451378,90.388634 126.108307,77.924362 134.700623,66.510696 
	C137.147034,63.260967 138.895828,59.486053 140.964539,55.951973 
	C140.964539,55.951969 140.990372,56.002388 141.302063,55.882801 
	C142.640701,55.227798 143.772736,54.829193 144.677261,54.134426 
	C149.951614,50.083241 150.993210,50.348579 153.551193,56.684181 
	C154.046280,57.910404 154.709702,59.228401 154.671890,60.485313 
	C154.297440,72.935013 154.148178,85.409157 153.159897,97.814621 
	C152.721054,103.323120 150.243622,108.638710 149.183578,114.136734 
	C148.110046,119.704750 147.644119,125.389923 147.133377,131.221252 
	C148.939667,131.340652 150.524628,131.262589 152.109573,131.184509 
	C152.109573,131.184509 152.523743,131.089859 153.139740,131.054459 
	C155.825073,130.325409 157.894379,129.631775 159.963699,128.938141 
	C159.963699,128.938141 160.003448,128.985413 160.398865,128.959824 
	C168.663986,127.197670 176.533676,125.461098 184.403381,123.724533 
	C184.597031,124.174080 184.790680,124.623627 184.984314,125.073166 
	C183.542542,126.293556 182.088028,127.499245 180.661072,128.736710 
	C171.897766,136.336319 162.339935,143.209290 154.553802,151.705414 
	C139.866440,167.732010 132.992096,187.410446 132.228180,209.022766 
	C131.921463,217.700806 130.381744,226.688843 134.807831,234.974228 
	C134.851273,235.135651 134.894699,235.297058 134.992584,236.130066 
	C136.392105,240.868561 137.737167,244.935425 139.082245,249.002289 
	C139.082245,249.002289 139.014130,248.995316 139.049866,249.361191 
	C140.746170,253.150833 142.406708,256.574585 144.067245,259.998352 
	C144.067245,259.998352 144.001770,260.001190 144.104828,260.267761 
	C144.826462,261.356049 145.445038,262.177765 146.063614,262.999512 
	C146.063614,262.999512 146.003815,262.996979 146.052841,263.343994 
	C147.826569,269.330048 150.673782,274.126953 156.085999,276.999603 
	C156.633804,277.472961 157.181610,277.946320 158.029617,278.853943 
	C158.571198,279.530853 158.812576,279.773468 159.053955,280.016083 
	C159.053955,280.016083 158.983856,280.016357 159.154602,280.167236 
	C159.568085,280.549713 159.810822,280.781342 160.053558,281.012970 
	C160.053558,281.012970 159.983444,281.015808 160.162323,281.165375 
	C160.595810,281.544678 160.850388,281.774445 161.104965,282.004211 
	C161.649216,282.475372 162.193481,282.946564 163.073029,283.897369 
	C164.296417,284.910156 165.184509,285.443298 166.072617,285.976410 
	C166.072617,285.976410 166.012985,285.985260 166.105682,286.298401 
	C168.875031,291.885651 173.291718,294.475739 179.074249,294.959015 
	C179.074249,294.959015 179.016586,294.989410 179.217087,295.194763 
	C180.313553,295.929108 181.209534,296.458130 182.105499,296.987122 
	C182.105499,296.987122 182.534927,297.065887 182.940918,297.400696 
	C185.253769,298.477997 187.160614,299.220490 189.067474,299.962982 
	C189.067474,299.962982 189.010147,299.986938 189.198730,300.240234 
	C195.979279,306.148895 204.001053,306.806854 212.153702,307.007355 
	C212.153702,307.007355 212.547623,307.003387 213.037125,307.156006 
	C215.414429,307.528473 217.302246,307.748352 219.190048,307.968201 
	C220.211823,308.011627 221.233612,308.055084 222.688416,308.461578 
	C221.738571,311.011200 220.862518,313.978088 218.891144,315.258575 
	C205.445923,323.991669 190.063675,324.080719 174.794083,324.508453 
	C171.847214,324.590973 168.905212,324.847260 165.960968,325.023376 
	C165.526901,324.984833 165.092819,324.946259 164.173676,324.714783 
	C163.467987,324.332977 163.237061,324.157654 162.724106,324.005798 
	C162.271240,324.023071 162.090118,324.030457 161.908997,324.037811 
M81.019936,372.972076 
	C81.019936,372.972076 81.044601,373.004700 81.019936,372.972076 
z"/>
<path fill="#036B34" opacity="1.000000" stroke="none" 
	d="
M401.794678,316.978180 
	C403.579254,329.896088 404.301208,343.077209 407.419556,355.664703 
	C411.246124,371.110962 422.522736,381.794861 435.057007,390.898651 
	C452.928467,403.878937 473.252411,411.569885 494.157959,418.026398 
	C496.005249,418.596893 497.287231,420.997772 498.831787,422.548523 
	C497.076660,423.363464 495.331573,424.865021 493.564911,424.890839 
	C464.878296,425.310852 437.481995,419.448425 412.164856,405.922760 
	C389.948303,394.053558 370.068604,378.830597 358.207367,355.998291 
	C352.331970,344.688507 348.143372,332.136780 345.374481,319.662415 
	C340.950012,299.729828 338.555206,279.355194 334.898041,259.240936 
	C332.360535,245.284851 330.040161,231.186386 326.017700,217.627701 
	C320.197571,198.009521 309.815460,180.705902 296.014435,165.390610 
	C284.072906,152.138809 270.064606,141.745972 254.285919,133.799347 
	C246.496140,129.876160 238.050354,127.254646 229.896790,124.055855 
	C228.974747,123.694130 227.839371,123.630203 227.125092,123.038971 
	C225.859848,121.991661 223.772903,120.430603 223.965195,119.473305 
	C224.272491,117.943527 225.974091,115.825829 227.412521,115.526924 
	C240.339081,112.840729 253.289368,110.192924 266.329834,108.155754 
	C275.796448,106.676888 285.396423,105.586197 294.962372,105.349106 
	C303.336060,105.141556 311.827728,105.823555 320.118713,107.087280 
	C331.637604,108.843010 343.145782,110.590477 354.095032,115.318352 
	C377.383606,125.374367 392.674072,141.734482 398.137299,166.948380 
	C402.922729,189.034119 403.301331,211.376099 402.955933,233.789001 
	C402.722870,248.913574 402.258698,264.034607 401.684692,279.996033 
	C401.579224,292.882660 401.686951,304.930420 401.794678,316.978180 
z"/>
<path fill="#036B34" opacity="1.000000" stroke="none" 
	d="
M218.112518,139.984131 
	C218.112518,139.984116 218.555710,140.070755 218.977798,140.391052 
	C226.966812,145.094498 234.494217,149.548157 242.121109,153.824387 
	C244.972809,155.423294 248.056412,156.608582 251.034286,157.982468 
	C251.034286,157.982468 250.997116,158.001648 251.141083,158.292862 
	C254.198669,160.719650 257.112274,162.855225 260.025909,164.990814 
	C260.025909,164.990799 259.995483,165.002914 260.132416,165.301544 
	C268.074738,173.528061 275.875549,181.460495 283.701813,189.367691 
	C284.025116,189.694290 284.587280,189.784470 285.038147,189.984787 
	C285.038147,189.984787 284.999542,190.003052 285.084167,190.334381 
	C287.137177,193.921692 289.225861,197.111816 291.051605,200.445923 
	C296.794006,210.932495 303.773193,220.986542 307.822968,232.100967 
	C314.813354,251.285965 316.540527,271.735931 316.759308,292.033875 
	C316.892670,304.409149 314.930389,316.837341 313.480499,329.191406 
	C311.829987,343.255066 307.207458,356.328491 299.066956,367.608398 
	C299.174713,364.581543 299.837769,361.782928 299.158020,359.361267 
	C297.090363,351.994995 296.888489,352.051666 303.621735,352.053955 
	C312.636597,343.770752 304.134155,333.775024 306.928955,324.896759 
	C307.067535,324.456543 305.859161,323.592285 305.377655,323.039764 
	C302.480133,328.297943 299.642059,333.207825 297.064301,338.250702 
	C296.103027,340.131226 295.200134,342.329590 295.226501,344.370697 
	C295.294281,349.618927 293.309967,352.888153 288.028168,354.063232 
	C286.609802,354.378784 285.333588,355.333344 284.102234,355.660583 
	C284.991486,353.862518 285.641785,352.310760 286.569122,350.947449 
	C300.412781,330.595428 307.414825,307.859344 308.712860,283.536591 
	C310.075836,257.996918 301.599640,235.975494 283.331940,217.595276 
	C274.860809,209.072021 265.396942,202.102295 255.007874,196.505051 
	C245.112183,191.173599 234.969131,185.569748 224.236115,182.688675 
	C206.390900,177.898468 187.866730,176.597351 169.291656,176.952805 
	C156.944778,177.189072 156.200089,176.187592 156.970383,163.964401 
	C156.970383,163.964401 156.998779,164.001953 157.294128,163.861389 
	C159.712997,161.138077 161.836533,158.555313 163.960068,155.972549 
	C163.960068,155.972549 163.994278,155.988083 164.160980,155.828003 
	C164.559067,155.449326 164.777451,155.218445 164.982819,154.975281 
	C164.982819,154.975281 164.989670,154.990234 165.334671,154.906128 
	C168.781967,152.201797 171.884262,149.581558 174.986557,146.961304 
	C174.986557,146.961304 175.003555,147.001160 175.308884,146.909882 
	C176.739243,145.851227 177.864273,144.883850 178.989288,143.916473 
	C179.090973,143.621719 179.264496,143.378128 180.005692,142.983093 
	C181.328644,142.173477 182.155762,141.566467 182.982864,140.959457 
	C182.982864,140.959457 182.999695,141.001114 183.276855,140.889618 
	C184.363800,140.172302 185.173584,139.566483 185.983368,138.960648 
	C185.983368,138.960648 185.998657,139.001190 186.369598,138.944489 
	C194.561981,135.436691 202.422073,136.125397 210.364716,138.498138 
	C212.871582,139.247040 215.525757,139.502716 218.112518,139.984131 
M313.149628,310.814697 
	C313.555176,306.536011 314.322418,302.177399 310.020721,298.629028 
	C308.286102,304.312927 307.065430,310.022217 306.528442,315.795074 
	C306.418396,316.978180 308.868622,318.399445 310.138672,319.710907 
	C311.049927,318.352753 312.205200,317.091309 312.794281,315.605438 
	C313.255798,314.441345 313.016266,312.999359 313.149628,310.814697 
M312.642517,287.006012 
	C312.940704,286.845520 313.238861,286.684998 313.537048,286.524506 
	C313.395874,286.284485 313.254730,286.044495 313.113586,285.804474 
	C312.913513,286.121033 312.713409,286.437561 312.642517,287.006012 
z"/>
<path fill="#0E6836" opacity="1.000000" stroke="none" 
	d="
M299.008179,368.009033 
	C307.207458,356.328491 311.829987,343.255066 313.480499,329.191406 
	C314.930389,316.837341 316.892670,304.409149 316.759308,292.033875 
	C316.540527,271.735931 314.813354,251.285965 307.822968,232.100967 
	C303.773193,220.986542 296.794006,210.932495 291.051605,200.445923 
	C289.225861,197.111816 287.137177,193.921692 285.093750,190.315704 
	C290.650238,197.852478 296.848969,205.400787 301.798737,213.694473 
	C313.092041,232.617111 316.330872,253.739868 318.168243,275.380035 
	C319.897614,295.747955 318.558044,315.854980 315.062836,335.791840 
	C311.360992,356.907532 300.698486,375.083588 287.049805,391.125305 
	C273.290771,407.296661 258.294159,422.425232 243.617386,437.798340 
	C239.983948,441.604156 235.700638,444.896729 231.340927,447.876343 
	C225.138153,452.115662 221.504959,450.056183 220.904633,442.679260 
	C220.478424,437.441895 220.058960,432.127991 218.785583,427.062164 
	C217.931885,423.665894 216.039764,420.277100 213.811264,417.536255 
	C209.975357,412.818451 205.352463,412.009460 200.826172,416.042084 
	C192.225723,423.704468 184.358719,432.183472 176.027420,440.156433 
	C168.121735,447.722107 160.319977,455.446472 151.904312,462.414825 
	C143.635422,469.261688 137.547958,468.566895 129.094452,460.546448 
	C111.730362,444.071808 94.427551,427.528198 77.365639,410.742462 
	C72.798424,406.249146 69.000732,400.916473 65.247345,395.683960 
	C63.925827,393.841675 63.792835,391.146790 63.347164,388.711487 
	C65.384010,390.725952 67.190865,392.870148 69.121613,395.262787 
	C69.495720,396.007202 69.745918,396.503174 69.996124,396.999176 
	C70.718582,398.076752 71.292519,399.301483 72.189240,400.206360 
	C76.022018,404.073730 77.311897,403.592316 79.638748,398.808289 
	C81.103996,395.795746 83.579918,393.274750 86.085777,390.090729 
	C93.297195,384.203979 93.754730,381.643066 89.007843,375.998108 
	C86.373154,370.238464 83.738464,364.478851 81.072456,358.326965 
	C85.843338,365.584595 90.934631,373.078857 95.206444,381.014252 
	C96.072044,382.622223 94.206810,386.107117 92.918076,388.331268 
	C91.991119,389.931000 90.026596,391.026215 88.358185,392.083374 
	C79.952827,397.409271 79.257744,407.320221 89.383072,414.772644 
	C98.511322,421.491211 106.956978,429.137177 115.835617,436.711395 
	C115.967552,437.048676 115.900055,437.136902 115.492989,437.114929 
	C113.724655,437.061157 112.363388,437.029358 110.876968,436.715698 
	C109.819244,435.557098 108.886681,434.680359 107.954117,433.803589 
	C107.674721,434.256805 107.395325,434.710022 107.115929,435.163239 
	C108.409706,435.776306 109.703476,436.389374 111.130936,437.314209 
	C112.577293,439.321899 113.710754,441.202637 115.234871,442.680511 
	C120.715057,447.994476 126.371933,453.125793 131.877228,458.414398 
	C137.816116,464.119629 142.800064,464.638214 149.599823,459.788086 
	C163.226608,450.068329 174.378067,437.802765 185.316986,424.881531 
	C188.084930,422.497742 190.543839,420.250153 193.242188,417.815247 
	C194.322968,416.755249 195.164322,415.882599 196.322723,414.856903 
	C199.427155,413.470825 202.214539,412.237762 205.417938,411.006104 
	C207.220627,411.008484 208.607285,411.009521 210.273544,411.205963 
	C212.571075,413.066528 215.193893,414.360382 216.488586,416.469513 
	C219.792084,421.851166 222.395538,427.552002 222.110046,434.243256 
	C221.986420,437.140747 222.597443,440.230927 223.588150,442.976074 
	C225.008179,446.910828 227.894058,447.602539 230.938980,444.841217 
	C235.110519,441.058258 239.003189,436.967773 243.325348,432.874390 
	C246.426987,430.165070 249.218643,427.590515 252.274567,424.814240 
	C261.507599,415.310791 271.060181,406.491882 279.271240,396.563477 
	C286.618134,387.679962 292.486176,377.573364 299.003601,368.003204 
	C299.000519,368.000000 299.008179,368.009033 299.008179,368.009033 
z"/>
<path fill="#026C34" opacity="1.000000" stroke="none" 
	d="
M94.068115,312.817657 
	C93.885170,312.835999 93.702217,312.854370 93.047485,312.597534 
	C91.042015,311.576263 89.508331,310.830109 87.617142,310.038208 
	C85.505516,309.326813 83.751411,308.661224 81.847351,307.682922 
	C79.813026,303.859375 76.671761,303.208801 73.079971,303.583466 
	C73.079971,303.583466 72.713455,303.663330 72.713455,303.663330 
	C72.713455,303.663330 72.415047,303.435791 72.257256,302.978333 
	C71.715599,302.007599 71.331726,301.494354 70.947853,300.981079 
	C70.947853,300.981079 71.005844,301.006042 70.955856,300.681641 
	C70.602959,299.236267 70.300049,298.115265 69.946007,296.673248 
	C69.317245,295.242371 68.739609,294.132538 68.161980,293.022705 
	C67.865501,292.529877 67.569031,292.037079 67.420731,291.020142 
	C68.102516,286.963470 68.812355,283.442688 69.049583,279.890350 
	C69.111244,278.967010 67.696640,277.945099 66.960098,276.968445 
	C67.009384,276.538239 67.058670,276.108063 67.431694,275.216431 
	C67.933250,273.131012 68.111069,271.506989 68.225479,269.610138 
	C68.118866,269.155640 68.075661,268.973999 68.032448,268.792328 
	C68.056877,268.417572 68.081306,268.042847 68.359467,267.167938 
	C69.061005,265.783173 69.508804,264.898590 70.090706,263.893982 
	C70.198761,263.173950 70.172722,262.573853 70.135880,261.574524 
	C70.093506,260.374725 70.061943,259.574249 70.030373,258.773743 
	C70.056870,258.388885 70.083366,258.004059 70.273666,257.074188 
	C70.617775,255.991898 70.798073,255.454636 70.978371,254.917358 
	C70.978371,254.917358 70.980339,254.981796 71.346428,254.994934 
	C73.732010,256.672180 76.591255,257.939941 77.601570,260.080383 
	C79.925880,265.004639 81.135544,270.440735 83.191170,275.509460 
	C86.252861,283.058990 89.793251,290.371307 97.047066,294.984528 
	C97.047066,294.984528 97.000694,295.005188 97.093994,295.325073 
	C103.754478,307.240295 113.483521,313.070374 127.000000,312.367218 
	C127.000862,313.482178 127.001427,314.225067 126.629066,315.017578 
	C119.094368,315.885681 118.660957,321.910492 116.889084,326.638123 
	C115.648415,322.330811 114.539864,318.387238 113.431305,314.443665 
	C112.757141,314.238556 112.082977,314.033478 111.408806,313.828369 
	C111.840759,321.214905 106.575661,322.222260 102.099243,323.653290 
	C102.976753,321.710724 103.799950,320.127472 104.498238,318.490936 
	C106.056313,314.839325 105.224442,313.829956 100.959808,314.100311 
	C100.794540,314.058441 100.629272,314.016571 99.984825,313.694824 
	C97.693138,313.215851 95.880623,313.016754 94.068115,312.817657 
z"/>
<path fill="#0E6836" opacity="1.000000" stroke="none" 
	d="
M156.661438,164.135956 
	C156.200089,176.187592 156.944778,177.189072 169.291656,176.952805 
	C187.866730,176.597351 206.390900,177.898468 224.236115,182.688675 
	C234.969131,185.569748 245.112183,191.173599 255.007874,196.505051 
	C265.396942,202.102295 274.860809,209.072021 283.331940,217.595276 
	C301.599640,235.975494 310.075836,257.996918 308.712860,283.536591 
	C307.414825,307.859344 300.412781,330.595428 286.569122,350.947449 
	C285.641785,352.310760 284.991486,353.862518 284.106140,355.663086 
	C284.000000,355.999573 283.993591,355.995575 283.728119,356.197021 
	C277.929474,362.138245 272.618317,368.119080 266.763702,373.509705 
	C264.082733,375.978271 260.332733,377.285797 257.018494,379.056458 
	C256.969482,378.993103 256.869843,378.867554 256.869843,378.867554 
	C276.736694,363.902618 290.905060,344.800415 299.046356,321.223755 
	C303.665192,307.847839 306.856628,294.227356 307.011566,280.021118 
	C307.238312,259.236877 300.162354,241.026917 286.771667,225.363022 
	C265.109009,200.022827 237.088501,186.029556 204.475357,181.219589 
	C193.085556,179.539734 181.431778,179.637070 169.895676,178.972809 
	C167.569458,178.838867 165.201187,179.158646 162.903763,178.865723 
	C159.369995,178.415176 155.465500,178.534790 153.746094,174.250610 
	C152.133240,170.231979 153.972931,167.224136 156.661438,164.135956 
z"/>
<path fill="#0E6836" opacity="1.000000" stroke="none" 
	d="
M45.886063,94.676132 
	C45.874004,94.954636 45.707455,94.931702 45.549309,94.882011 
	C34.941292,91.548508 33.423653,92.390129 32.332741,103.663795 
	C31.292095,114.418030 30.963522,125.240517 29.956732,135.998825 
	C28.212963,154.632339 36.319214,169.144302 48.547783,182.088287 
	C51.171856,184.865891 53.718788,187.744598 56.028347,190.784103 
	C59.003563,194.699661 58.752968,198.488846 55.770782,202.636398 
	C47.449711,214.209167 38.292828,225.400192 31.666550,237.907761 
	C25.611576,249.336945 22.439993,262.292542 17.980200,274.569092 
	C17.256903,276.560150 16.442654,278.518158 15.424885,280.726868 
	C16.064730,263.851135 22.191217,248.325928 30.850113,233.958557 
	C37.909424,222.245300 46.282585,211.311493 54.310883,200.203857 
	C56.173061,197.627441 56.018684,195.918137 54.147385,193.655731 
	C48.663033,187.025131 43.159946,180.401337 37.926548,173.573776 
	C28.603947,161.411392 26.740013,147.510544 28.584904,132.689011 
	C29.422689,125.958366 29.564104,119.140076 29.991972,112.359688 
	C30.357418,106.568504 30.168278,100.676376 31.252001,95.025978 
	C31.748978,92.434792 34.397709,88.770477 36.622364,88.320496 
	C40.661606,87.503471 44.085739,90.205482 45.886063,94.676132 
z"/>
<path fill="#026C34" opacity="1.000000" stroke="none" 
	d="
M101.988228,323.988434 
	C106.575661,322.222260 111.840759,321.214905 111.408806,313.828369 
	C112.082977,314.033478 112.757141,314.238556 113.431305,314.443665 
	C114.539864,318.387238 115.648415,322.330811 116.888901,326.969666 
	C117.019623,328.107056 117.018417,328.549164 116.766983,329.206116 
	C114.843391,330.888458 113.170021,332.355865 111.813911,333.545105 
	C114.387459,336.921234 116.705429,339.962097 119.023010,343.333435 
	C119.020790,344.104492 119.018959,344.545105 118.963165,345.267670 
	C119.602638,347.031586 120.296089,348.513550 120.993660,350.395630 
	C121.001427,351.862640 121.005066,352.929565 120.751480,354.206665 
	C119.783272,355.319031 119.135841,356.281647 118.347672,357.110443 
	C116.839676,358.696198 115.251648,360.205811 113.696823,361.747040 
	C112.296738,359.463776 110.848145,357.207886 109.534370,354.875977 
	C109.244972,354.362335 109.407661,353.579376 109.406471,352.920319 
	C109.396515,347.410248 106.633415,343.620972 101.677231,340.897095 
	C100.544067,340.541199 99.716614,340.293152 98.889160,340.045074 
	C98.594017,339.940521 98.352524,339.762970 98.070251,339.034058 
	C97.984161,338.370392 97.992493,338.185181 98.239868,337.763580 
	C100.322815,334.634521 102.166718,331.741852 104.019348,328.835541 
	C103.375961,327.300598 102.682129,325.645294 101.993591,323.993835 
	C101.998901,323.997711 101.988228,323.988434 101.988228,323.988434 
z"/>
<path fill="#0E6836" opacity="1.000000" stroke="none" 
	d="
M116.001320,437.004578 
	C118.707947,438.827820 121.673676,440.392883 123.985458,442.632874 
	C127.508827,446.046814 130.962189,445.624573 134.145798,442.839783 
	C140.756683,437.056976 147.421646,431.274414 153.477249,424.931244 
	C165.948166,411.868073 178.025238,398.429138 190.290878,385.169342 
	C191.515091,383.845947 192.921555,382.691132 193.998795,382.855469 
	C202.006546,386.049744 209.815369,390.022705 218.098572,392.138763 
	C222.871277,393.358032 228.808029,392.644836 233.514740,390.898499 
	C241.042969,388.105286 247.984009,383.729523 255.579193,379.993286 
	C255.985107,379.963837 256.126312,380.079620 256.008118,380.405273 
	C251.592316,383.818451 247.294708,386.905975 242.638763,390.074402 
	C238.180313,391.411957 234.149231,393.384521 229.966843,393.787720 
	C218.556656,394.887634 207.429596,393.957245 197.426254,387.214966 
	C196.144257,386.350891 192.864426,386.879456 191.523849,387.988403 
	C188.357452,390.607727 185.607742,393.811188 183.032471,397.051056 
	C170.300613,413.068390 156.183044,427.803772 140.753174,441.164734 
	C131.094147,449.528687 125.916260,450.733398 116.618767,438.446411 
	C116.321526,438.053558 116.137085,437.575317 115.900055,437.136902 
	C115.900055,437.136902 115.967552,437.048676 116.001320,437.004578 
z"/>
<path fill="#0E6836" opacity="1.000000" stroke="none" 
	d="
M79.006088,353.610596 
	C76.879089,351.159302 74.429543,348.510132 72.599480,345.486115 
	C70.897301,342.673370 70.114197,339.313171 68.478394,336.450012 
	C60.770405,322.958435 59.111858,308.191742 57.704479,293.019714 
	C56.409271,279.056885 59.750378,265.949158 61.987206,252.602509 
	C62.760571,247.988022 65.486008,243.682922 67.438660,239.289337 
	C69.053047,235.656860 70.766762,232.063141 72.588470,228.530640 
	C73.412949,226.931854 74.399071,225.311813 75.670052,224.067154 
	C79.774353,220.047867 84.683487,221.410110 85.564064,227.024261 
	C86.251060,231.404205 86.033020,235.926102 86.101578,240.750687 
	C85.301964,237.608337 84.764519,234.062958 83.885475,230.604401 
	C83.233368,228.038681 82.137627,225.585724 81.239494,223.082535 
	C80.538689,222.979553 79.837891,222.876556 79.137085,222.773560 
	C75.893982,228.963409 72.362526,235.021469 69.462074,241.367920 
	C60.899773,260.103027 58.610481,279.981812 60.166115,300.268280 
	C61.134750,312.899902 65.255844,324.840668 70.753098,336.260559 
	C73.480492,341.926422 76.219879,347.586456 79.006088,353.610596 
z"/>
<path fill="#146637" opacity="1.000000" stroke="none" 
	d="
M134.864380,234.539642 
	C130.381744,226.688843 131.921463,217.700806 132.228180,209.022766 
	C132.992096,187.410446 139.866440,167.732010 154.553802,151.705414 
	C162.339935,143.209290 171.897766,136.336319 180.661072,128.736710 
	C182.088028,127.499245 183.542542,126.293556 184.984314,125.073166 
	C184.790680,124.623627 184.597031,124.174080 184.403381,123.724533 
	C176.533676,125.461098 168.663986,127.197670 160.371979,128.945633 
	C169.679565,124.635948 179.709412,121.610062 190.306046,121.031715 
	C190.654190,121.586830 191.002319,122.141945 191.350464,122.697060 
	C189.874039,124.166656 188.486282,125.740097 186.906754,127.088928 
	C176.984177,135.562241 166.510345,143.463928 157.189911,152.550720 
	C144.014053,165.396271 137.311142,181.933823 135.288742,199.922607 
	C134.022202,211.188141 134.967850,222.702393 134.864380,234.539642 
z"/>
<path fill="#0E6836" opacity="1.000000" stroke="none" 
	d="
M18.138252,308.313843 
	C20.328005,311.454285 23.122684,314.751740 24.457743,318.560760 
	C29.314648,332.417908 39.148617,342.147186 50.561676,350.385956 
	C54.760391,353.416901 60.025482,355.289307 65.075249,356.758209 
	C76.606956,360.112457 80.357452,366.916016 75.850464,378.770508 
	C74.638435,379.842651 73.821518,380.417023 72.658279,381.055573 
	C70.538742,382.077545 68.765541,383.035370 66.995903,383.996521 
	C66.999474,383.999817 66.990936,383.987396 66.715202,384.154297 
	C65.276764,384.876801 64.114059,385.432404 62.951347,385.987976 
	C64.835381,383.713470 66.286697,380.694946 68.683014,379.301300 
	C76.469055,374.773071 77.743446,367.506134 71.261086,361.244812 
	C70.621620,360.627136 69.550873,360.290375 68.631042,360.153046 
	C49.351917,357.274048 36.424603,345.476166 26.943382,329.540924 
	C23.118502,323.112396 20.979580,315.680756 18.138252,308.313843 
z"/>
<path fill="#0E6836" opacity="1.000000" stroke="none" 
	d="
M140.661774,56.106640 
	C138.895828,59.486053 137.147034,63.260967 134.700623,66.510696 
	C126.108307,77.924362 118.451378,90.388634 108.233124,100.142876 
	C95.853607,111.960220 97.887077,125.726929 98.329567,139.869095 
	C98.500755,145.340454 98.846451,150.845764 98.390228,156.274887 
	C98.240585,158.055740 96.070801,160.583649 94.353226,161.056335 
	C92.658173,161.522842 89.322739,160.402435 88.524040,158.967102 
	C85.638252,153.781006 83.517654,148.169128 81.068710,142.334137 
	C83.707420,146.647873 86.240440,151.437973 89.143120,155.992508 
	C90.147766,157.568878 92.070457,158.560165 93.573807,159.818695 
	C94.717690,157.871277 96.843391,155.924759 96.845161,153.976303 
	C96.856171,141.861710 96.845963,129.711456 95.911003,117.645218 
	C95.361954,110.559280 99.912674,106.703995 103.412300,102.138870 
	C111.848526,91.134148 120.568855,80.345970 129.247009,69.528557 
	C132.855988,65.029915 136.649429,60.679253 140.661774,56.106640 
z"/>
<path fill="#0E6836" opacity="1.000000" stroke="none" 
	d="
M126.999695,311.995117 
	C113.483521,313.070374 103.754478,307.240295 97.103485,295.301605 
	C101.980568,299.058563 106.735336,303.449677 111.971420,307.161865 
	C115.764259,309.850861 120.204010,311.541504 125.482216,308.145325 
	C105.402016,291.144806 90.174461,271.332367 86.110321,244.347473 
	C87.168640,246.014389 88.582802,247.993027 89.094742,250.182587 
	C93.403984,268.613312 103.858719,283.303192 116.955139,296.397247 
	C118.578140,298.019958 120.577065,299.266693 122.901054,301.114685 
	C125.261253,305.021484 127.122200,308.501251 128.652832,311.983276 
	C127.881561,311.988739 127.440628,311.991943 126.999695,311.995117 
z"/>
<path fill="#0E6836" opacity="1.000000" stroke="none" 
	d="
M146.912033,131.023773 
	C147.644119,125.389923 148.110046,119.704750 149.183578,114.136734 
	C150.243622,108.638710 152.721054,103.323120 153.159897,97.814621 
	C154.148178,85.409157 154.297440,72.935013 154.671890,60.485313 
	C154.709702,59.228401 154.046280,57.910404 153.551193,56.684181 
	C150.993210,50.348579 149.951614,50.083241 144.677261,54.134426 
	C143.772736,54.829193 142.640701,55.227798 141.278748,55.866383 
	C143.051651,53.498844 144.778503,50.477577 147.359894,48.690952 
	C150.922119,46.225460 154.926163,48.290535 155.857971,52.697487 
	C156.503128,55.748703 157.007385,58.926418 156.898071,62.023731 
	C156.419006,75.597313 156.378464,89.241447 154.820892,102.702873 
	C153.748383,111.972061 150.449692,120.983681 147.824768,130.528442 
	C147.306381,130.972244 147.109207,130.998001 146.912033,131.023773 
z"/>
<path fill="#026C34" opacity="1.000000" stroke="none" 
	d="
M128.983154,311.981049 
	C127.122200,308.501251 125.261253,305.021484 123.197784,301.275879 
	C126.748428,297.657990 129.245514,299.977448 130.864655,303.205261 
	C132.957626,307.377594 135.132767,310.857452 140.294083,311.837036 
	C141.592346,312.083435 142.949142,314.913788 143.295074,316.742767 
	C144.329239,322.210358 144.396057,327.977570 149.771515,332.028503 
	C149.175888,333.380402 148.594788,334.193573 147.685852,334.916412 
	C145.907745,334.218048 144.457520,333.609955 142.918259,332.635437 
	C142.218689,329.848724 141.608170,327.428436 140.940308,324.679840 
	C140.252930,323.234558 139.622910,322.117615 138.735992,321.094452 
	C137.973145,321.395599 137.467178,321.602966 136.705673,321.867279 
	C136.281799,321.970306 136.113464,322.016388 135.945114,322.062469 
	C135.945114,322.062469 135.942993,322.024292 135.868347,321.748230 
	C135.447083,320.988464 135.100464,320.504730 134.753860,320.020996 
	C134.528000,319.925507 134.341400,319.779755 134.021210,319.117981 
	C133.549271,318.095306 133.250168,317.538300 132.951080,316.981323 
	C132.951080,316.981323 133.017075,316.994659 132.853195,316.797974 
	C132.460052,316.311005 132.230774,316.020660 131.858215,315.466248 
	C130.804321,314.128479 129.893738,313.054749 128.983154,311.981049 
z"/>
<path fill="#146637" opacity="1.000000" stroke="none" 
	d="
M166.288879,325.291443 
	C168.905212,324.847260 171.847214,324.590973 174.794083,324.508453 
	C190.063675,324.080719 205.445923,323.991669 218.891144,315.258575 
	C220.862518,313.978088 221.738571,311.011200 223.068420,308.514099 
	C224.496048,308.992706 225.976700,309.781830 227.457336,310.570953 
	C226.706970,311.907349 226.248779,313.581055 225.158691,314.525269 
	C218.170135,320.578674 209.491226,323.336609 200.728088,324.331635 
	C189.456512,325.611420 177.995956,325.226990 166.288879,325.291443 
z"/>
<path fill="#0E6836" opacity="1.000000" stroke="none" 
	d="
M96.999695,294.633545 
	C89.793251,290.371307 86.252861,283.058990 83.191170,275.509460 
	C81.135544,270.440735 79.925880,265.004639 77.601570,260.080383 
	C76.591255,257.939941 73.732010,256.672180 71.322731,254.973053 
	C72.114365,253.522476 73.295776,252.106903 74.477203,250.691330 
	C75.669716,252.092575 77.244240,253.315811 77.993454,254.923615 
	C83.326950,266.369293 88.456230,277.909943 93.748199,289.375305 
	C94.558182,291.130157 95.871696,292.652649 96.999695,294.633545 
z"/>
<path fill="#0E6836" opacity="1.000000" stroke="none" 
	d="
M285.013550,189.630875 
	C284.587280,189.784470 284.025116,189.694290 283.701813,189.367691 
	C275.875549,181.460495 268.074738,173.528061 260.137756,165.285736 
	C266.306854,170.547501 272.708405,176.015671 278.856842,181.755005 
	C281.199799,183.942078 282.962036,186.751282 285.013550,189.630875 
z"/>
<path fill="#0E6836" opacity="1.000000" stroke="none" 
	d="
M250.869919,157.683243 
	C248.056412,156.608582 244.972809,155.423294 242.121109,153.824387 
	C234.494217,149.548157 226.966812,145.094498 219.194275,140.455231 
	C221.119247,140.850662 223.464676,141.130768 225.343567,142.217468 
	C233.869492,147.148636 242.263840,152.307251 250.869919,157.683243 
z"/>
<path fill="#0E6836" opacity="1.000000" stroke="none" 
	d="
M98.969482,340.419830 
	C99.716614,340.293152 100.544067,340.541199 101.726479,341.270294 
	C104.374306,348.849579 106.667175,355.947815 108.600029,363.042175 
	C107.759483,363.033600 107.278961,363.028900 106.798431,363.024200 
	C106.197495,361.973541 105.596565,360.922852 104.836296,359.339844 
	C104.488419,358.511230 104.299873,358.214996 104.111336,357.918732 
	C104.111336,357.918732 104.003761,357.605011 103.896240,357.121796 
	C103.534462,356.030334 103.280212,355.422058 103.025955,354.813812 
	C101.700577,350.140747 100.375183,345.467651 98.969482,340.419830 
z"/>
<path fill="#0E6836" opacity="1.000000" stroke="none" 
	d="
M117.017220,328.991241 
	C117.018417,328.549164 117.019623,328.107056 117.021004,327.333435 
	C118.660957,321.910492 119.094368,315.885681 126.900246,315.304932 
	C127.909111,315.922699 128.273880,316.302704 128.638641,316.682739 
	C128.043243,316.790405 127.447853,316.898102 126.288788,317.180145 
	C125.150826,317.923401 124.576538,318.492279 124.002243,319.061157 
	C124.002251,319.061157 123.995850,318.996490 123.788864,319.178406 
	C123.060493,319.962524 122.539108,320.564697 122.017731,321.166870 
	C122.017731,321.166870 122.010147,321.463318 121.780212,321.782654 
	C121.315002,323.052948 121.079720,324.003937 120.844437,324.954926 
	C120.636421,328.716949 120.428406,332.479004 119.845413,336.400085 
	C118.652695,334.036530 117.834961,331.513885 117.017220,328.991241 
z"/>
<path fill="#0E6836" opacity="1.000000" stroke="none" 
	d="
M98.000824,338.000000 
	C97.992493,338.185181 97.984161,338.370392 97.963394,338.833374 
	C92.659813,336.671112 94.767906,332.234406 95.893410,328.881958 
	C97.123016,325.219391 99.600792,321.894043 101.932999,318.713928 
	C103.346764,316.786224 103.745804,315.644440 101.140915,314.339722 
	C105.224442,313.829956 106.056313,314.839325 104.498238,318.490936 
	C103.799950,320.127472 102.976753,321.710724 102.099243,323.653290 
	C101.988228,323.988434 101.998901,323.997711 101.708420,324.178345 
	C96.635513,327.993317 96.445534,332.778076 98.000824,338.000000 
z"/>
<path fill="#0E6836" opacity="1.000000" stroke="none" 
	d="
M148.013702,335.006714 
	C148.594788,334.193573 149.175888,333.380402 149.880936,332.292664 
	C150.711380,332.016418 151.417847,332.014740 152.477631,332.013611 
	C152.080948,335.814758 151.330963,339.615326 150.000427,343.764832 
	C144.703873,344.755157 144.355606,341.381897 144.216827,337.990845 
	C145.694061,336.918121 146.853882,335.962433 148.013702,335.006714 
z"/>
<path fill="#026C34" opacity="1.000000" stroke="none" 
	d="
M116.766998,329.206116 
	C117.834961,331.513885 118.652695,334.036530 119.644318,336.766174 
	C120.134224,337.856445 120.450249,338.739716 120.463959,340.301880 
	C119.782227,341.654846 119.402809,342.328888 119.023392,343.002960 
	C116.705429,339.962097 114.387459,336.921234 111.813911,333.545105 
	C113.170021,332.355865 114.843391,330.888458 116.766998,329.206116 
z"/>
<path fill="#0E6836" opacity="1.000000" stroke="none" 
	d="
M217.872787,139.708527 
	C215.525757,139.502716 212.871582,139.247040 210.364716,138.498138 
	C202.422073,136.125397 194.561981,135.436691 186.354828,138.927460 
	C190.931793,133.501190 197.609619,134.764725 203.623642,135.235565 
	C208.373871,135.607422 212.969025,137.960007 217.872787,139.708527 
z"/>
<path fill="#146637" opacity="1.000000" stroke="none" 
	d="
M211.876633,306.724731 
	C204.001053,306.806854 195.979279,306.148895 189.195984,300.209290 
	C196.536301,302.097382 204.067932,304.269745 211.876633,306.724731 
z"/>
<path fill="#0E6836" opacity="1.000000" stroke="none" 
	d="
M69.001099,123.636765 
	C63.361607,120.231110 59.170856,115.311157 57.087280,108.335037 
	C61.008316,113.069870 64.982712,118.177650 69.001099,123.636765 
z"/>
<path fill="#0E6836" opacity="1.000000" stroke="none" 
	d="
M56.894928,107.656189 
	C50.551430,106.396652 48.670116,100.756454 46.089058,95.313873 
	C49.590218,99.090553 53.170753,103.217712 56.894928,107.656189 
z"/>
<path fill="#0E6836" opacity="1.000000" stroke="none" 
	d="
M119.023003,343.333435 
	C119.402809,342.328888 119.782227,341.654846 120.383720,340.651337 
	C121.352242,346.341614 122.098686,352.361359 122.527451,358.717468 
	C121.834595,359.054443 121.459412,359.055023 121.009445,358.750183 
	C120.959335,356.962006 120.984024,355.479248 121.008713,353.996490 
	C121.005066,352.929565 121.001427,351.862640 120.935028,350.057495 
	C120.253899,347.874725 119.635521,346.430237 119.017136,344.985718 
	C119.018959,344.545105 119.020790,344.104492 119.023003,343.333435 
z"/>
<path fill="#528664" opacity="1.000000" stroke="none" 
	d="
M401.856140,316.511688 
	C401.686951,304.930420 401.579224,292.882660 401.639099,280.463989 
	C401.843719,292.077118 401.880676,304.061157 401.856140,316.511688 
z"/>
<path fill="#0E6836" opacity="1.000000" stroke="none" 
	d="
M66.695328,277.279968 
	C67.696640,277.945099 69.111244,278.967010 69.049583,279.890350 
	C68.812355,283.442688 68.102516,286.963470 67.366592,290.737488 
	C66.919701,286.516479 66.675125,282.054016 66.695328,277.279968 
z"/>
<path fill="#146637" opacity="1.000000" stroke="none" 
	d="
M178.924408,294.644989 
	C173.291718,294.475739 168.875031,291.885651 166.113525,286.269318 
	C170.277328,288.728363 174.525955,291.529663 178.924408,294.644989 
z"/>
<path fill="#146637" opacity="1.000000" stroke="none" 
	d="
M156.006500,276.656525 
	C150.673782,274.126953 147.826569,269.330048 146.066040,263.317139 
	C149.329147,267.399994 152.628067,271.856720 156.006500,276.656525 
z"/>
<path fill="#1D6A3F" opacity="1.000000" stroke="none" 
	d="
M143.899414,338.107849 
	C144.355606,341.381897 144.703873,344.755157 149.747009,344.062866 
	C149.146759,345.327118 148.219330,346.642242 147.291931,347.957397 
	C146.072906,347.053070 144.258499,346.394623 143.761841,345.192017 
	C142.800125,342.863190 142.580307,340.227936 142.346603,337.458038 
	C143.059921,337.500183 143.479675,337.804016 143.899414,338.107849 
z"/>
<path fill="#0E6836" opacity="1.000000" stroke="none" 
	d="
M80.991119,141.632263 
	C78.087097,137.550613 75.116447,133.119278 72.083794,128.323273 
	C74.989357,132.399918 77.956924,136.841248 80.991119,141.632263 
z"/>
<path fill="#026B33" opacity="1.000000" stroke="none" 
	d="
M62.974808,385.996643 
	C64.114059,385.432404 65.276764,384.876801 66.722328,384.577454 
	C67.669357,388.227264 68.333527,391.620819 68.997704,395.014374 
	C67.190865,392.870148 65.384010,390.725952 63.399612,388.312561 
	C63.177830,387.881653 63.133595,387.719971 63.039280,387.035095 
	C62.986362,386.327820 62.983524,386.143799 62.980690,385.959778 
	C62.980690,385.959778 62.998260,386.005310 62.974808,385.996643 
z"/>
<path fill="#0E6836" opacity="1.000000" stroke="none" 
	d="
M174.629730,146.995850 
	C171.884262,149.581558 168.781967,152.201797 165.327438,154.890289 
	C168.074432,152.315811 171.173660,149.673096 174.629730,146.995850 
z"/>
<path fill="#0E6836" opacity="1.000000" stroke="none" 
	d="
M73.110001,303.888489 
	C76.671761,303.208801 79.813026,303.859375 81.440971,307.684784 
	C80.101044,308.010681 79.017532,308.022034 77.934021,308.033356 
	C77.649147,307.938141 77.409882,307.775696 76.842873,307.197144 
	C75.918373,306.582428 75.367226,306.316650 74.816071,306.050873 
	C74.257393,305.431763 73.698715,304.812653 73.110001,303.888489 
z"/>
<path fill="#0E6836" opacity="1.000000" stroke="none" 
	d="
M140.997650,325.008148 
	C141.608170,327.428436 142.218689,329.848724 142.584625,332.657166 
	C141.897186,333.081207 141.454346,333.117065 141.011490,333.152924 
	C141.011490,333.152924 140.947098,333.133453 140.888779,332.783813 
	C140.520309,331.623688 140.210175,330.813232 139.900024,330.002747 
	C139.619736,329.567963 139.339447,329.133209 138.990051,328.054138 
	C138.267685,325.543304 137.614441,323.676819 136.961212,321.810303 
	C137.467178,321.602966 137.973145,321.395599 138.837692,321.401001 
	C139.796738,322.745178 140.397202,323.876678 140.997650,325.008148 
z"/>
<path fill="#026B33" opacity="1.000000" stroke="none" 
	d="
M141.049622,333.355988 
	C141.454346,333.117065 141.897186,333.081207 142.673676,333.023621 
	C144.457520,333.609955 145.907745,334.218048 147.685852,334.916412 
	C146.853882,335.962433 145.694061,336.918121 144.216827,337.990845 
	C143.479675,337.804016 143.059921,337.500183 142.425903,337.046387 
	C142.211655,336.896393 142.097031,336.504547 141.978973,336.027832 
	C141.641602,335.019379 141.422287,334.487640 141.202972,333.955902 
	C141.202988,333.955902 141.087753,333.559052 141.049622,333.355988 
z"/>
<path fill="#146637" opacity="1.000000" stroke="none" 
	d="
M139.042297,248.610168 
	C137.737167,244.935425 136.392105,240.868561 135.044952,236.375275 
	C136.362701,240.038589 137.682541,244.128326 139.042297,248.610168 
z"/>
<path fill="#0E6836" opacity="1.000000" stroke="none" 
	d="
M259.863159,164.694504 
	C257.112274,162.855225 254.198669,160.719650 251.148895,158.273285 
	C253.908646,160.107727 256.804535,162.252960 259.863159,164.694504 
z"/>
<path fill="#0E6836" opacity="1.000000" stroke="none" 
	d="
M163.664032,156.125305 
	C161.836533,158.555313 159.712997,161.138077 157.272720,163.850006 
	C159.093323,161.412140 161.230667,158.845108 163.664032,156.125305 
z"/>
<path fill="#146637" opacity="1.000000" stroke="none" 
	d="
M144.009583,259.635620 
	C142.406708,256.574585 140.746170,253.150833 139.055664,249.327454 
	C140.667801,252.376205 142.309860,255.824554 144.009583,259.635620 
z"/>
<path fill="#18653A" opacity="1.000000" stroke="none" 
	d="
M78.152328,308.304993 
	C79.017532,308.022034 80.101044,308.010681 81.590927,307.997498 
	C83.751411,308.661224 85.505516,309.326813 87.736877,310.277527 
	C88.447479,311.043945 88.680840,311.525299 88.914185,312.006622 
	C85.399666,310.863281 81.885147,309.719940 78.152328,308.304993 
z"/>
<path fill="#0E6836" opacity="1.000000" stroke="none" 
	d="
M16.133904,299.366943 
	C16.857403,301.139465 17.520491,303.298645 18.081978,305.780396 
	C17.344748,303.986511 16.709122,301.870056 16.133904,299.366943 
z"/>
<path fill="#026B33" opacity="1.000000" stroke="none" 
	d="
M128.900101,316.526154 
	C128.273880,316.302704 127.909111,315.922699 127.273170,315.255310 
	C127.001427,314.225067 127.000862,313.482178 127.000000,312.367218 
	C127.440628,311.991943 127.881561,311.988739 128.652832,311.983276 
	C129.893738,313.054749 130.804321,314.128479 131.594421,315.537842 
	C131.296570,315.913086 131.119202,315.952667 130.941818,315.992279 
	C130.348404,316.118042 129.754990,316.243805 128.900101,316.526154 
z"/>
<path fill="#1A673C" opacity="1.000000" stroke="none" 
	d="
M117.119041,368.121674 
	C114.643715,370.819305 112.169571,370.616425 109.662369,367.695312 
	C109.766899,367.167694 109.905418,367.063446 110.422714,367.031616 
	C112.855499,367.377533 114.909531,367.651001 117.001999,367.974060 
	C117.040436,368.023712 117.119041,368.121674 117.119041,368.121674 
z"/>
<path fill="#0E6836" opacity="1.000000" stroke="none" 
	d="
M153.388824,328.846832 
	C153.593567,327.485291 154.092514,325.926086 154.851562,324.198639 
	C154.635452,325.570007 154.159241,327.109558 153.388824,328.846832 
z"/>
<path fill="#0E6836" opacity="1.000000" stroke="none" 
	d="
M68.288887,269.882965 
	C68.111069,271.506989 67.933250,273.131012 67.490784,274.897125 
	C67.193024,274.574921 67.159904,274.110596 67.281738,272.998657 
	C67.720749,271.528320 68.004822,270.705627 68.288887,269.882965 
z"/>
<path fill="#146637" opacity="1.000000" stroke="none" 
	d="
M159.582703,128.964661 
	C157.894379,129.631775 155.825073,130.325409 153.349518,131.020966 
	C155.029434,130.345642 157.115555,129.668411 159.582703,128.964661 
z"/>
<path fill="#0E6836" opacity="1.000000" stroke="none" 
	d="
M94.400803,313.007751 
	C95.880623,313.016754 97.693138,313.215851 99.739304,313.623260 
	C98.226471,313.620331 96.479980,313.409088 94.400803,313.007751 
z"/>
<path fill="#146637" opacity="1.000000" stroke="none" 
	d="
M188.870850,299.679626 
	C187.160614,299.220490 185.253769,298.477997 183.151489,297.458313 
	C184.862106,297.919525 186.768173,298.657898 188.870850,299.679626 
z"/>
<path fill="#0E6836" opacity="1.000000" stroke="none" 
	d="
M89.168404,312.268250 
	C88.680840,311.525299 88.447479,311.043945 88.094391,310.323303 
	C89.508331,310.830109 91.042015,311.576263 92.772736,312.573425 
	C91.787384,312.726257 90.605003,312.628052 89.168404,312.268250 
z"/>
<path fill="#146637" opacity="1.000000" stroke="none" 
	d="
M218.974197,307.681335 
	C217.302246,307.748352 215.414429,307.528473 213.233978,307.149048 
	C214.880341,307.124481 216.819351,307.259460 218.974197,307.681335 
z"/>
<path fill="#1A673C" opacity="1.000000" stroke="none" 
	d="
M121.084244,359.055603 
	C121.459412,359.055023 121.834595,359.054443 122.491089,359.052887 
	C122.047142,360.915161 121.321869,362.778412 120.311188,364.840454 
	C120.025780,365.039215 119.936447,364.967621 119.948402,364.598480 
	C119.976814,363.491364 119.993279,362.753387 120.125458,361.721954 
	C120.522202,360.637543 120.803223,359.846558 121.084244,359.055603 
z"/>
<path fill="#1D6A3F" opacity="1.000000" stroke="none" 
	d="
M136.705673,321.867249 
	C137.614441,323.676819 138.267685,325.543304 138.955688,327.785339 
	C137.991150,326.361115 136.991821,324.561340 135.968811,322.412048 
	C136.113464,322.016388 136.281799,321.970306 136.705673,321.867249 
z"/>
<path fill="#0E6836" opacity="1.000000" stroke="none" 
	d="
M72.016281,127.651154 
	C71.091057,126.859566 70.133118,125.733765 69.095642,124.283058 
	C70.005257,125.077751 70.994408,126.197342 72.016281,127.651154 
z"/>
<path fill="#0E6836" opacity="1.000000" stroke="none" 
	d="
M68.119186,293.377258 
	C68.739609,294.132538 69.317245,295.242371 69.686432,296.682922 
	C69.304863,297.019867 69.131752,297.026093 68.958633,297.032288 
	C68.664551,295.932129 68.370476,294.831940 68.119186,293.377258 
z"/>
<path fill="#146637" opacity="1.000000" stroke="none" 
	d="
M147.133377,131.221252 
	C147.109207,130.998001 147.306381,130.972244 147.798553,130.907013 
	C149.164673,130.934311 150.235825,131.001099 151.708267,131.126190 
	C150.524628,131.262589 148.939667,131.340652 147.133377,131.221252 
z"/>
<path fill="#0E6836" opacity="1.000000" stroke="none" 
	d="
M178.660294,143.970490 
	C177.864273,144.883850 176.739243,145.851227 175.289444,146.900909 
	C176.086884,145.996994 177.209091,145.010757 178.660294,143.970490 
z"/>
<path fill="#1A673C" opacity="1.000000" stroke="none" 
	d="
M106.869843,363.354736 
	C107.278961,363.028900 107.759483,363.033600 108.713448,363.297882 
	C109.436180,364.059601 109.685478,364.561768 109.952080,365.379761 
	C109.994232,366.116821 110.019089,366.537994 110.043945,366.959167 
	C109.905418,367.063446 109.766899,367.167694 109.419861,367.427551 
	C108.454651,366.283875 107.697952,364.984558 106.869843,363.354736 
z"/>
<path fill="#18653A" opacity="1.000000" stroke="none" 
	d="
M68.966438,297.381348 
	C69.131752,297.026093 69.304863,297.019867 69.737556,297.003967 
	C70.300049,298.115265 70.602959,299.236267 70.936638,300.706665 
	C70.303009,299.947540 69.638626,298.838989 68.966438,297.381348 
z"/>
<path fill="#0E6836" opacity="1.000000" stroke="none" 
	d="
M81.010696,357.666382 
	C80.424362,356.872589 79.778259,355.748474 79.087769,354.290588 
	C79.679230,355.083252 80.315079,356.209686 81.010696,357.666382 
z"/>
<path fill="#18653A" opacity="1.000000" stroke="none" 
	d="
M69.956619,264.013977 
	C69.508804,264.898590 69.061005,265.783173 68.407448,266.890381 
	C68.273178,266.202332 68.344650,265.291718 68.931625,264.176575 
	C69.616959,263.986023 69.786789,264.000000 69.956619,264.013977 
z"/>
<path fill="#0E6836" opacity="1.000000" stroke="none" 
	d="
M70.090714,263.893982 
	C69.786789,264.000000 69.616959,263.986023 69.193054,263.948914 
	C68.981590,263.516113 69.024185,263.106476 69.358917,262.362915 
	C69.651062,262.029053 70.146683,261.973785 70.146683,261.973785 
	C70.172722,262.573853 70.198761,263.173950 70.090714,263.893982 
z"/>
<path fill="#0E6836" opacity="1.000000" stroke="none" 
	d="
M182.666840,141.018890 
	C182.155762,141.566467 181.328644,142.173477 180.201172,142.868088 
	C180.717468,142.329910 181.534134,141.704117 182.666840,141.018890 
z"/>
<path fill="#146637" opacity="1.000000" stroke="none" 
	d="
M146.020630,262.673340 
	C145.445038,262.177765 144.826462,261.356049 144.108887,260.235229 
	C144.665802,260.739807 145.321732,261.543488 146.020630,262.673340 
z"/>
<path fill="#0E6836" opacity="1.000000" stroke="none" 
	d="
M185.669861,139.016327 
	C185.173584,139.566483 184.363800,140.172302 183.260040,140.874237 
	C183.762848,140.337585 184.559616,139.704803 185.669861,139.016327 
z"/>
<path fill="#146637" opacity="1.000000" stroke="none" 
	d="
M165.924301,285.687622 
	C165.184509,285.443298 164.296417,284.910156 163.202164,284.137085 
	C163.922653,284.397736 164.849319,284.898285 165.924301,285.687622 
z"/>
<path fill="#1D6A3F" opacity="1.000000" stroke="none" 
	d="
M121.014175,324.651215 
	C121.079720,324.003937 121.315002,323.052948 121.750282,321.927856 
	C121.694824,322.618347 121.439362,323.482910 121.014175,324.651215 
z"/>
<path fill="#146637" opacity="1.000000" stroke="none" 
	d="
M181.936798,296.705017 
	C181.209534,296.458130 180.313553,295.929108 179.207382,295.163635 
	C179.920822,295.425781 180.844467,295.924377 181.936798,296.705017 
z"/>
<path fill="#18653A" opacity="1.000000" stroke="none" 
	d="
M68.225479,269.610138 
	C68.004822,270.705627 67.720749,271.528320 67.310295,272.650574 
	C67.268875,271.723389 67.353844,270.496613 67.735626,269.031067 
	C68.075661,268.973999 68.118866,269.155640 68.225479,269.610138 
z"/>
<path fill="#0E6836" opacity="1.000000" stroke="none" 
	d="
M15.160294,294.308105 
	C15.437776,294.569183 15.700179,295.117188 15.945837,295.854980 
	C15.667799,295.561493 15.406507,295.078308 15.160294,294.308105 
z"/>
<path fill="#1D6A3F" opacity="1.000000" stroke="none" 
	d="
M139.947037,330.340210 
	C140.210175,330.813232 140.520309,331.623688 140.901779,332.752808 
	C140.646744,332.273499 140.320389,331.475586 139.947037,330.340210 
z"/>
<path fill="#18653A" opacity="1.000000" stroke="none" 
	d="
M70.135880,261.574524 
	C70.146683,261.973785 69.651062,262.029053 69.403244,262.056824 
	C69.244125,261.124878 69.332832,260.165222 69.725952,258.989624 
	C70.061943,259.574249 70.093506,260.374725 70.135880,261.574524 
z"/>
<path fill="#1D6A3F" opacity="1.000000" stroke="none" 
	d="
M124.287201,318.942749 
	C124.576538,318.492279 125.150826,317.923401 125.985321,317.192261 
	C125.687737,317.628143 125.129944,318.226227 124.287201,318.942749 
z"/>
<path fill="#1D6A3F" opacity="1.000000" stroke="none" 
	d="
M122.271545,320.999878 
	C122.539108,320.564697 123.060493,319.962524 123.821243,319.181152 
	C123.548859,319.612274 123.037109,320.222565 122.271545,320.999878 
z"/>
<path fill="#1D6A3F" opacity="1.000000" stroke="none" 
	d="
M134.820618,320.330170 
	C135.100464,320.504730 135.447083,320.988464 135.878876,321.760986 
	C135.605148,321.579620 135.246246,321.109467 134.820618,320.330170 
z"/>
<path fill="#18653A" opacity="1.000000" stroke="none" 
	d="
M75.015945,306.297119 
	C75.367226,306.316650 75.918373,306.582428 76.730438,307.009186 
	C76.399506,306.961243 75.807663,306.752289 75.015945,306.297119 
z"/>
<path fill="#1D6A3F" opacity="1.000000" stroke="none" 
	d="
M131.125656,316.232513 
	C131.119202,315.952667 131.296570,315.913086 131.737732,315.801941 
	C132.230774,316.020660 132.460052,316.311005 132.843201,316.830139 
	C132.434570,316.863556 131.872040,316.668152 131.125656,316.232513 
z"/>
<path fill="#18653A" opacity="1.000000" stroke="none" 
	d="
M70.995804,301.331177 
	C71.331726,301.494354 71.715599,302.007599 72.271530,302.791168 
	C71.976974,302.601410 71.510361,302.141327 70.995804,301.331177 
z"/>
<path fill="#1D6A3F" opacity="1.000000" stroke="none" 
	d="
M132.972290,317.314728 
	C133.250168,317.538300 133.549271,318.095306 133.939163,318.958679 
	C133.684464,318.726105 133.338974,318.187134 132.972290,317.314728 
z"/>
<path fill="#1A673C" opacity="1.000000" stroke="none" 
	d="
M102.977951,355.171295 
	C103.280212,355.422058 103.534462,356.030334 103.864441,356.959045 
	C103.603432,356.695953 103.266685,356.112366 102.977951,355.171295 
z"/>
<path fill="#1D6A3F" opacity="1.000000" stroke="none" 
	d="
M141.182007,334.263855 
	C141.422287,334.487640 141.641602,335.019379 141.943878,335.826752 
	C141.738235,335.592194 141.449646,335.082001 141.182007,334.263855 
z"/>
<path fill="#18653A" opacity="1.000000" stroke="none" 
	d="
M70.713974,255.081635 
	C70.798073,255.454636 70.617775,255.991898 70.314713,256.787781 
	C70.277817,256.446228 70.363693,255.846069 70.713974,255.081635 
z"/>
<path fill="#0E6836" opacity="1.000000" stroke="none" 
	d="
M62.826340,386.070129 
	C62.983524,386.143799 62.986362,386.327820 62.991035,386.788330 
	C62.885914,386.770020 62.778954,386.475220 62.826340,386.070129 
z"/>
<path fill="#146637" opacity="1.000000" stroke="none" 
	d="
M159.930847,280.784912 
	C159.810822,280.781342 159.568085,280.549713 159.155014,280.132172 
	C159.259155,280.149780 159.533630,280.353333 159.930847,280.784912 
z"/>
<path fill="#146637" opacity="1.000000" stroke="none" 
	d="
M160.966461,281.780212 
	C160.850388,281.774445 160.595810,281.544678 160.161407,281.130310 
	C160.263702,281.149200 160.545837,281.352722 160.966461,281.780212 
z"/>
<path fill="#0E6836" opacity="1.000000" stroke="none" 
	d="
M164.757904,155.080200 
	C164.777451,155.218445 164.559067,155.449326 164.149963,155.827026 
	C164.065598,155.653625 164.252518,155.386612 164.757904,155.080200 
z"/>
<path fill="#0E6836" opacity="1.000000" stroke="none" 
	d="
M255.915192,379.905090 
	C255.954361,379.525208 256.147552,379.266998 256.647339,378.969604 
	C256.869843,378.867554 256.969482,378.993103 256.866760,379.221008 
	C256.558655,379.666443 256.346069,379.876678 256.126312,380.079620 
	C256.126312,380.079620 255.985107,379.963837 255.915192,379.905090 
z"/>
<path fill="#1A673C" opacity="1.000000" stroke="none" 
	d="
M118.178726,367.155579 
	C118.068268,367.483978 117.869255,367.744812 117.350372,368.029846 
	C117.119041,368.121674 117.040436,368.023712 117.159767,367.804749 
	C117.496750,367.365814 117.727066,367.159943 118.022171,367.015137 
	C118.074310,367.062012 118.178726,367.155579 118.178726,367.155579 
z"/>
<path fill="#1A673C" opacity="1.000000" stroke="none" 
	d="
M119.174019,366.153412 
	C119.043877,366.454895 118.849953,366.707367 118.385483,367.033203 
	C118.178726,367.155579 118.074310,367.062012 118.181747,366.841614 
	C118.507248,366.394592 118.734901,366.178009 119.022621,366.016998 
	C119.073090,366.062469 119.174019,366.153412 119.174019,366.153412 
z"/>
<path fill="#1A673C" opacity="1.000000" stroke="none" 
	d="
M120.070053,365.075500 
	C120.045700,365.446228 119.875732,365.717102 119.389221,366.038879 
	C119.174019,366.153412 119.073090,366.062469 119.173172,365.839996 
	C119.481316,365.387634 119.702385,365.170990 119.936447,364.967621 
	C119.936447,364.967621 120.025780,365.039215 120.070053,365.075500 
z"/>
<path fill="#1A673C" opacity="1.000000" stroke="none" 
	d="
M104.158501,358.189819 
	C104.299873,358.214996 104.488419,358.511230 104.811668,359.031372 
	C104.699471,358.990509 104.452568,358.725708 104.158501,358.189819 
z"/>
<path fill="#146637" opacity="1.000000" stroke="none" 
	d="
M158.931030,279.783508 
	C158.812576,279.773468 158.571198,279.530853 158.161163,279.094116 
	C158.264359,279.117004 158.536224,279.333984 158.931030,279.783508 
z"/>
<path fill="#0E6836" opacity="1.000000" stroke="none" 
	d="
M162.036621,324.236969 
	C162.090118,324.030457 162.271240,324.023071 162.723694,324.215332 
	C162.994995,324.414917 162.993134,324.833771 162.993134,324.833771 
	C162.653458,324.833344 162.377167,324.700806 162.036621,324.236969 
z"/>
<path fill="#146637" opacity="1.000000" stroke="none" 
	d="
M163.248138,324.859070 
	C162.993134,324.833771 162.994995,324.414917 162.995422,324.205414 
	C163.237061,324.157654 163.467987,324.332977 163.849960,324.669800 
	C163.841934,324.839935 163.672531,324.862152 163.248138,324.859070 
z"/>
<path fill="#026B34" opacity="1.000000" stroke="none" 
	d="
M69.121613,395.262787 
	C68.333527,391.620819 67.669357,388.227264 66.998062,384.410553 
	C66.990936,383.987396 66.999474,383.999817 67.360733,383.959167 
	C69.482864,382.942810 71.243736,381.967133 73.004601,380.991425 
	C73.821518,380.417023 74.638435,379.842651 75.718651,379.125244 
	C76.833023,383.922638 78.106659,388.838501 78.395180,393.811523 
	C78.607964,397.479095 75.563431,398.578796 70.308670,397.108704 
	C69.745918,396.503174 69.495720,396.007202 69.121613,395.262787 
z"/>
<path fill="#026B34" opacity="1.000000" stroke="none" 
	d="
M88.739899,376.128479 
	C93.754730,381.643066 93.297195,384.203979 86.287109,389.824707 
	C85.130096,389.087463 83.334221,387.825439 83.527054,387.315552 
	C84.952789,383.545807 86.774643,379.925873 88.739899,376.128479 
z"/>
<path fill="#026B34" opacity="1.000000" stroke="none" 
	d="
M81.032272,372.988403 
	C81.044601,373.004700 81.019936,372.972076 81.032272,372.988403 
z"/>
<path fill="#026B34" opacity="1.000000" stroke="none" 
	d="
M115.492989,437.114929 
	C116.137085,437.575317 116.321526,438.053558 116.618767,438.446411 
	C125.916260,450.733398 131.094147,449.528687 140.753174,441.164734 
	C156.183044,427.803772 170.300613,413.068390 183.032471,397.051056 
	C185.607742,393.811188 188.357452,390.607727 191.523849,387.988403 
	C192.864426,386.879456 196.144257,386.350891 197.426254,387.214966 
	C207.429596,393.957245 218.556656,394.887634 229.966843,393.787720 
	C234.149231,393.384521 238.180313,391.411957 242.773422,390.287506 
	C243.409897,391.978882 243.553375,393.538025 243.831757,396.563263 
	C249.523438,388.361816 257.186401,385.420013 265.086823,383.627838 
	C265.121063,381.319824 265.238159,378.998138 266.458405,377.876678 
	C270.528503,374.136078 274.820923,370.576599 279.358490,367.423065 
	C283.576813,364.491455 285.443573,361.023376 283.993591,355.995575 
	C283.993591,355.995575 284.000000,355.999573 283.996094,355.997070 
	C285.333588,355.333344 286.609802,354.378784 288.028168,354.063232 
	C293.309967,352.888153 295.294281,349.618927 295.226501,344.370697 
	C295.200134,342.329590 296.103027,340.131226 297.064301,338.250702 
	C299.642059,333.207825 302.480133,328.297943 305.377655,323.039764 
	C305.859161,323.592285 307.067535,324.456543 306.928955,324.896759 
	C304.134155,333.775024 312.636597,343.770752 303.621735,352.053955 
	C296.888489,352.051666 297.090363,351.994995 299.158020,359.361267 
	C299.837769,361.782928 299.174713,364.581543 299.066956,367.608398 
	C299.008179,368.009033 299.000519,368.000000 298.690674,368.137817 
	C293.410156,372.776031 288.414490,377.249542 283.505798,381.816559 
	C282.989960,382.296478 282.693634,383.367462 282.792908,384.096466 
	C283.507202,389.341248 281.085968,388.653442 277.559021,387.307770 
	C276.285583,386.821899 273.734283,387.488464 272.958130,388.523254 
	C272.205170,389.527100 272.337006,392.307617 273.211578,393.203461 
	C275.522217,395.570374 274.716370,397.491882 272.997589,399.238098 
	C268.141632,404.171539 263.545898,409.525574 258.014893,413.577057 
	C253.759247,416.694366 251.426300,419.828796 252.010300,425.015961 
	C249.218643,427.590515 246.426987,430.165070 242.962173,432.922913 
	C240.583008,434.041199 238.949295,435.165192 237.149033,435.853882 
	C235.593826,436.448822 233.594330,437.236542 232.238129,436.733734 
	C228.724319,435.430939 225.988342,427.643188 226.935699,423.839294 
	C227.448380,421.780792 227.228165,419.539764 227.338593,417.381073 
	C225.368179,417.606201 223.397766,417.831299 220.762787,418.132324 
	C220.283157,417.139038 219.546387,415.725708 218.907516,414.269440 
	C216.832764,409.540253 214.870209,408.810150 209.993958,411.010559 
	C208.607285,411.009521 207.220627,411.008484 205.193665,410.763977 
	C202.541092,409.395935 200.528793,408.271423 198.516479,407.146912 
	C197.683044,409.443970 196.839020,411.737335 196.029633,414.042816 
	C195.928009,414.332336 196.009171,414.686005 196.005661,415.009949 
	C195.164322,415.882599 194.322968,416.755249 192.877167,417.861572 
	C188.073685,418.537415 186.362991,421.590942 185.007919,425.017700 
	C174.378067,437.802765 163.226608,450.068329 149.599823,459.788086 
	C142.800064,464.638214 137.816116,464.119629 131.877228,458.414398 
	C126.371933,453.125793 120.715057,447.994476 115.234871,442.680511 
	C113.710754,441.202637 112.577293,439.321899 111.132309,437.312988 
	C111.000000,437.000000 111.002121,436.997559 111.002121,436.997559 
	C112.363388,437.029358 113.724655,437.061157 115.492989,437.114929 
z"/>
<path fill="#026B34" opacity="1.000000" stroke="none" 
	d="
M313.118896,311.247742 
	C313.016266,312.999359 313.255798,314.441345 312.794281,315.605438 
	C312.205200,317.091309 311.049927,318.352753 310.138672,319.710907 
	C308.868622,318.399445 306.418396,316.978180 306.528442,315.795074 
	C307.065430,310.022217 308.286102,304.312927 310.020721,298.629028 
	C314.322418,302.177399 313.555176,306.536011 313.118896,311.247742 
z"/>
<path fill="#026B34" opacity="1.000000" stroke="none" 
	d="
M312.577911,286.880066 
	C312.713409,286.437561 312.913513,286.121033 313.113586,285.804474 
	C313.254730,286.044495 313.395874,286.284485 313.537048,286.524506 
	C313.238861,286.684998 312.940704,286.845520 312.577911,286.880066 
z"/>
<path fill="#036B34" opacity="1.000000" stroke="none" 
	d="
M252.274567,424.814240 
	C251.426300,419.828796 253.759247,416.694366 258.014893,413.577057 
	C263.545898,409.525574 268.141632,404.171539 272.997589,399.238098 
	C274.716370,397.491882 275.522217,395.570374 273.211578,393.203461 
	C272.337006,392.307617 272.205170,389.527100 272.958130,388.523254 
	C273.734283,387.488464 276.285583,386.821899 277.559021,387.307770 
	C281.085968,388.653442 283.507202,389.341248 282.792908,384.096466 
	C282.693634,383.367462 282.989960,382.296478 283.505798,381.816559 
	C288.414490,377.249542 293.410156,372.776031 298.693756,368.141022 
	C292.486176,377.573364 286.618134,387.679962 279.271240,396.563477 
	C271.060181,406.491882 261.507599,415.310791 252.274567,424.814240 
z"/>
<path fill="#036B34" opacity="1.000000" stroke="none" 
	d="
M210.273544,411.205933 
	C214.870209,408.810150 216.832764,409.540253 218.907516,414.269440 
	C219.546387,415.725708 220.283157,417.139038 220.762787,418.132324 
	C223.397766,417.831299 225.368179,417.606201 227.338593,417.381073 
	C227.228165,419.539764 227.448380,421.780792 226.935699,423.839294 
	C225.988342,427.643188 228.724319,435.430939 232.238129,436.733734 
	C233.594330,437.236542 235.593826,436.448822 237.149033,435.853882 
	C238.949295,435.165192 240.583008,434.041199 242.652191,433.057617 
	C239.003189,436.967773 235.110519,441.058258 230.938980,444.841217 
	C227.894058,447.602539 225.008179,446.910828 223.588150,442.976074 
	C222.597443,440.230927 221.986420,437.140747 222.110046,434.243256 
	C222.395538,427.552002 219.792084,421.851166 216.488586,416.469513 
	C215.193893,414.360382 212.571075,413.066528 210.273544,411.205933 
z"/>
<path fill="#036B34" opacity="1.000000" stroke="none" 
	d="
M196.322723,414.856903 
	C196.009171,414.686005 195.928009,414.332336 196.029633,414.042816 
	C196.839020,411.737335 197.683044,409.443970 198.516479,407.146912 
	C200.528793,408.271423 202.541092,409.395935 204.777649,410.762573 
	C202.214539,412.237762 199.427155,413.470825 196.322723,414.856903 
z"/>
<path fill="#036B34" opacity="1.000000" stroke="none" 
	d="
M185.316986,424.881531 
	C186.362991,421.590942 188.073685,418.537415 192.637726,418.048950 
	C190.543839,420.250153 188.084930,422.497742 185.316986,424.881531 
z"/>
<path fill="#026B34" opacity="1.000000" stroke="none" 
	d="
M110.998627,437.001221 
	C109.703476,436.389374 108.409706,435.776306 107.115929,435.163239 
	C107.395325,434.710022 107.674721,434.256805 107.954117,433.803589 
	C108.886681,434.680359 109.819244,435.557098 110.876968,436.715698 
	C111.002121,436.997559 111.000000,437.000000 110.998627,437.001221 
z"/>
<path fill="#036B34" opacity="1.000000" stroke="none" 
	d="
M283.728119,356.197021 
	C285.443573,361.023376 283.576813,364.491455 279.358490,367.423065 
	C274.820923,370.576599 270.528503,374.136078 266.458405,377.876678 
	C265.238159,378.998138 265.121063,381.319824 265.086823,383.627838 
	C257.186401,385.420013 249.523438,388.361816 243.831757,396.563263 
	C243.553375,393.538025 243.409897,391.978882 243.131775,390.206604 
	C247.294708,386.905975 251.592316,383.818451 256.008118,380.405273 
	C256.346069,379.876678 256.558655,379.666443 256.915771,379.284393 
	C260.332733,377.285797 264.082733,375.978271 266.763702,373.509705 
	C272.618317,368.119080 277.929474,362.138245 283.728119,356.197021 
z"/>
<path fill="#026C34" opacity="1.000000" stroke="none" 
	d="
M109.934784,365.063904 
	C109.685478,364.561768 109.436180,364.059601 109.073463,363.301758 
	C106.667175,355.947815 104.374306,348.849579 102.032181,341.378143 
	C106.633415,343.620972 109.396515,347.410248 109.406471,352.920319 
	C109.407661,353.579376 109.244972,354.362335 109.534370,354.875977 
	C110.848145,357.207886 112.296738,359.463776 113.696823,361.747040 
	C115.251648,360.205811 116.839676,358.696198 118.347672,357.110443 
	C119.135841,356.281647 119.783272,355.319031 120.751488,354.206665 
	C120.984024,355.479248 120.959335,356.962006 121.009445,358.750183 
	C120.803223,359.846558 120.522202,360.637543 119.815590,361.858215 
	C116.238258,363.213287 113.086517,364.138580 109.934784,365.063904 
z"/>
<path fill="#026C34" opacity="1.000000" stroke="none" 
	d="
M98.239868,337.763580 
	C96.445534,332.778076 96.635513,327.993317 101.703110,324.174500 
	C102.682129,325.645294 103.375961,327.300598 104.019348,328.835541 
	C102.166718,331.741852 100.322815,334.634521 98.239868,337.763580 
z"/>
<path fill="#026C34" opacity="1.000000" stroke="none" 
	d="
M118.963165,345.267670 
	C119.635521,346.430237 120.253899,347.874725 120.930908,349.657379 
	C120.296089,348.513550 119.602638,347.031586 118.963165,345.267670 
z"/>
<path fill="#026B33" opacity="1.000000" stroke="none" 
	d="
M72.658279,381.055573 
	C71.243736,381.967133 69.482864,382.942810 67.357162,383.955872 
	C68.765541,383.035370 70.538742,382.077545 72.658279,381.055573 
z"/>
<path fill="#026B33" opacity="1.000000" stroke="none" 
	d="
M140.940308,324.679840 
	C140.397202,323.876678 139.796738,322.745178 139.094574,321.307190 
	C139.622910,322.117615 140.252930,323.234558 140.940308,324.679840 
z"/>
<path fill="#0E6836" opacity="1.000000" stroke="none" 
	d="
M109.952072,365.379761 
	C113.086517,364.138580 116.238258,363.213287 119.699875,362.151672 
	C119.993279,362.753387 119.976814,363.491364 119.948402,364.598480 
	C119.702385,365.170990 119.481316,365.387634 119.122704,365.794525 
	C118.734901,366.178009 118.507248,366.394592 118.129616,366.794739 
	C117.727066,367.159943 117.496750,367.365814 117.121330,367.755127 
	C114.909531,367.651001 112.855499,367.377533 110.422707,367.031616 
	C110.019089,366.537994 109.994232,366.116821 109.952072,365.379761 
z"/>
</svg>